<?xml version="1.0" encoding="UTF-8"?>
<!DOCTYPE svg PUBLIC "-//W3C//DTD SVG 1.1//EN" "http://www.w3.org/Graphics/SVG/1.1/DTD/svg11.dtd">
<!-- Creator: CorelDRAW 2020 (64-Bit) -->
<svg xmlns="http://www.w3.org/2000/svg" xml:space="preserve" width="297mm" height="210mm" version="1.1" style="shape-rendering:geometricPrecision; text-rendering:geometricPrecision; image-rendering:optimizeQuality; fill-rule:evenodd; clip-rule:evenodd"
viewBox="0 0 29700 21000"
 xmlns:xlink="http://www.w3.org/1999/xlink"
 xmlns:xodm="http://www.corel.com/coreldraw/odm/2003">
 <defs>
  <style type="text/css">
   <![CDATA[
    .str1 {stroke:#445563;stroke-width:28.96;stroke-miterlimit:22.9256}
    .str0 {stroke:#BD1A3B;stroke-width:6.2;stroke-miterlimit:22.9256}
    .fil10 {fill:none;fill-rule:nonzero}
    .fil25 {fill:#0D1420;fill-rule:nonzero}
    .fil6 {fill:#1C1D21;fill-rule:nonzero}
    .fil8 {fill:#272E41;fill-rule:nonzero}
    .fil7 {fill:#2B2E3A;fill-rule:nonzero}
    .fil18 {fill:#2E3035;fill-rule:nonzero}
    .fil20 {fill:#31374C;fill-rule:nonzero}
    .fil26 {fill:#414265;fill-rule:nonzero}
    .fil17 {fill:#445563;fill-rule:nonzero}
    .fil38 {fill:#454545;fill-rule:nonzero}
    .fil41 {fill:#474E64;fill-rule:nonzero}
    .fil1 {fill:#494F66;fill-rule:nonzero}
    .fil27 {fill:#575B7D;fill-rule:nonzero}
    .fil16 {fill:#57617F;fill-rule:nonzero}
    .fil11 {fill:#647B8F;fill-rule:nonzero}
    .fil21 {fill:#6677A3;fill-rule:nonzero}
    .fil3 {fill:#676F8F;fill-rule:nonzero}
    .fil28 {fill:#72779D;fill-rule:nonzero}
    .fil5 {fill:#838486;fill-rule:nonzero}
    .fil34 {fill:#8698BF;fill-rule:nonzero}
    .fil12 {fill:#BD1A3B;fill-rule:nonzero}
    .fil33 {fill:#DC918B;fill-rule:nonzero}
    .fil24 {fill:#E69800;fill-rule:nonzero}
    .fil32 {fill:#E88636;fill-rule:nonzero}
    .fil2 {fill:#EF3340;fill-rule:nonzero}
    .fil9 {fill:#EF3F54;fill-rule:nonzero}
    .fil39 {fill:#F7AB8D;fill-rule:nonzero}
    .fil0 {fill:#F7F8FC;fill-rule:nonzero}
    .fil19 {fill:#F97A7A;fill-rule:nonzero}
    .fil31 {fill:#FAC2A8;fill-rule:nonzero}
    .fil40 {fill:#FFA84A;fill-rule:nonzero}
    .fil23 {fill:#FFB75E;fill-rule:nonzero}
    .fil42 {fill:#FFBD12;fill-rule:nonzero}
    .fil22 {fill:#FFD385;fill-rule:nonzero}
    .fil37 {fill:white;fill-rule:nonzero}
    .fil4 {fill:#001177;fill-rule:nonzero;fill-opacity:0.149020}
    .fil35 {fill:#F0808E;fill-rule:nonzero;fill-opacity:0.200000}
    .fil14 {fill:url(#id3);fill-rule:nonzero}
    .fil30 {fill:url(#id4);fill-rule:nonzero;fill-opacity:0.301961}
    .fil15 {fill:url(#id5);fill-rule:nonzero;fill-opacity:0.301961}
    .fil29 {fill:url(#id6);fill-rule:nonzero;fill-opacity:0.301961}
    .fil13 {fill:url(#id7);fill-rule:nonzero;fill-opacity:0.301961}
    .fil36 {fill:url(#id8);fill-rule:nonzero;fill-opacity:0.600000}
   ]]>
  </style>
    <mask id="id0">
  <linearGradient id="id1" gradientUnits="userSpaceOnUse" x1="-6236.85" y1="4472.79" x2="-5835.66" y2="3770.72">
   <stop offset="0" style="stop-opacity:1; stop-color:white"/>
   <stop offset="0.239216" style="stop-opacity:0; stop-color:white"/>
   <stop offset="0.988235" style="stop-opacity:1; stop-color:white"/>
   <stop offset="1" style="stop-opacity:1; stop-color:white"/>
  </linearGradient>
     <rect style="fill:url(#id1)" x="-6450.01" y="3899.82" width="834.09" height="472.01"/>
    </mask>
     <clipPath id="id2" style="clip-rule:nonzero">
      <path d="M-7528.68 2718.2l52.57 0 0 -21.03 -52.57 0 0 21.03z"/>
     </clipPath>
  <linearGradient id="id3" gradientUnits="userSpaceOnUse" x1="-6236.85" y1="4472.79" x2="-5835.66" y2="3770.72">
   <stop offset="0" style="stop-opacity:1; stop-color:#57617F"/>
   <stop offset="0.239216" style="stop-opacity:1; stop-color:#57617F"/>
   <stop offset="0.988235" style="stop-opacity:1; stop-color:#BFC6F2"/>
   <stop offset="1" style="stop-opacity:1; stop-color:#BFC6F2"/>
  </linearGradient>
  <linearGradient id="id4" gradientUnits="userSpaceOnUse" x1="-6893.48" y1="5498.74" x2="-6658.36" y2="5150.83">
   <stop offset="0" style="stop-opacity:1; stop-color:#57617F"/>
   <stop offset="0.109804" style="stop-opacity:1; stop-color:#57617F"/>
   <stop offset="0.988235" style="stop-opacity:1; stop-color:#BFC6F2"/>
   <stop offset="1" style="stop-opacity:1; stop-color:#BFC6F2"/>
  </linearGradient>
  <linearGradient id="id5" gradientUnits="userSpaceOnUse" xlink:href="#id4" x1="-4828.97" y1="4572.88" x2="-4460.49" y2="3872.62">
  </linearGradient>
  <linearGradient id="id6" gradientUnits="userSpaceOnUse" xlink:href="#id4" x1="-6810.2" y1="4872.2" x2="-6315.49" y2="4872.2">
  </linearGradient>
  <linearGradient id="id7" gradientUnits="userSpaceOnUse" xlink:href="#id4" x1="-6006.46" y1="4576.86" x2="-5462.61" y2="3687.4">
  </linearGradient>
  <linearGradient id="id8" gradientUnits="userSpaceOnUse" x1="-6011.19" y1="2258.18" x2="-6036.26" y2="2572.27">
   <stop offset="0" style="stop-opacity:1; stop-color:#FAC2A8"/>
   <stop offset="0.0705882" style="stop-opacity:1; stop-color:#F6BCA5"/>
   <stop offset="0.411765" style="stop-opacity:1; stop-color:#E8A496"/>
   <stop offset="0.729412" style="stop-opacity:1; stop-color:#DF968E"/>
   <stop offset="1" style="stop-opacity:1; stop-color:#DC918B"/>
  </linearGradient>
 </defs>
 <g id="Capa_x0020_1">
  <metadata id="CorelCorpID_0Corel-Layer"/>
  <rect class="fil0" x="-14220.74" y="-136.6" width="9524.99" height="8149.16"/>
  <g id="_3173764932704">
   <path class="fil1" d="M-12918.74 2093.82c-2.23,3.71 -4.69,6.55 -7.41,8.52 -2.47,1.73 -5.56,2.6 -9.26,2.6 -4.2,0 -9.14,-2.1 -14.82,-6.3 -5.68,-4.2 -12.84,-8.77 -21.48,-13.71 -8.4,-5.18 -18.65,-9.87 -30.75,-14.07 -11.85,-4.2 -26.3,-6.3 -43.34,-6.3 -16.05,0 -30.25,2.22 -42.59,6.67 -12.1,4.2 -22.35,10 -30.75,17.41 -8.15,7.41 -14.32,16.17 -18.52,26.3 -4.2,9.88 -6.3,20.62 -6.3,32.22 0,14.82 3.58,27.17 10.75,37.05 7.4,9.63 17.03,17.9 28.89,24.81 12.1,6.92 25.68,12.97 40.74,18.15 15.31,4.94 30.87,10.13 46.68,15.56 16.05,5.43 31.61,11.61 46.67,18.52 15.31,6.67 28.89,15.19 40.74,25.56 12.1,10.37 21.73,23.09 28.9,38.15 7.41,15.07 11.11,33.59 11.11,55.57 0,23.21 -3.95,45.06 -11.85,65.56 -7.91,20.25 -19.51,37.91 -34.82,52.97 -15.07,15.06 -33.71,26.92 -55.94,35.56 -21.97,8.64 -47.04,12.96 -75.19,12.96 -34.57,0 -65.93,-6.17 -94.09,-18.52 -28.15,-12.59 -52.23,-29.51 -72.23,-50.74l20.75 -34.08c1.97,-2.72 4.32,-4.94 7.03,-6.67 2.97,-1.98 6.18,-2.96 9.63,-2.96 3.21,0 6.8,1.35 10.75,4.07 4.19,2.47 8.89,5.68 14.07,9.63 5.19,3.95 11.11,8.28 17.78,12.97 6.67,4.69 14.2,9.01 22.6,12.96 8.64,3.95 18.4,7.29 29.26,10 10.87,2.47 23.09,3.71 36.67,3.71 17.04,0 32.23,-2.35 45.56,-7.04 13.34,-4.69 24.57,-11.24 33.71,-19.63 9.39,-8.65 16.55,-18.89 21.49,-30.75 4.94,-11.85 7.4,-25.06 7.4,-39.63 0,-16.05 -3.7,-29.14 -11.11,-39.27 -7.16,-10.37 -16.67,-19.01 -28.52,-25.93 -11.85,-6.91 -25.44,-12.71 -40.75,-17.41 -15.31,-4.93 -30.86,-9.87 -46.67,-14.81 -15.8,-5.19 -31.36,-11.11 -46.67,-17.78 -15.31,-6.67 -28.89,-15.31 -40.75,-25.93 -11.85,-10.62 -21.48,-23.83 -28.89,-39.64 -7.16,-16.05 -10.74,-35.8 -10.74,-59.26 0,-18.77 3.58,-36.92 10.74,-54.45 7.41,-17.54 18.03,-33.09 31.86,-46.68 14.07,-13.58 31.23,-24.44 51.48,-32.59 20.5,-8.15 43.96,-12.23 70.38,-12.23 29.64,0 56.55,4.7 80.75,14.08 24.45,9.38 45.94,22.97 64.46,40.75l-17.41 34.07zm348.27 219.29c0,-15.31 -2.22,-29.26 -6.67,-41.86 -4.2,-12.84 -10.49,-23.83 -18.89,-32.96 -8.15,-9.39 -18.15,-16.55 -30,-21.49 -11.86,-5.18 -25.31,-7.78 -40.38,-7.78 -31.61,0 -56.67,9.26 -75.19,27.78 -18.28,18.28 -29.64,43.71 -34.08,76.31l205.21 0zm53.34 175.95c-8.15,9.88 -17.9,18.52 -29.26,25.93 -11.36,7.16 -23.58,13.09 -36.67,17.78 -12.84,4.69 -26.18,8.15 -40.01,10.37 -13.83,2.47 -27.53,3.7 -41.12,3.7 -25.92,0 -49.88,-4.32 -71.86,-12.96 -21.73,-8.89 -40.62,-21.73 -56.67,-38.52 -15.8,-17.04 -28.15,-38.03 -37.04,-62.98 -8.89,-24.94 -13.34,-53.58 -13.34,-85.93 0,-26.18 3.95,-50.62 11.86,-73.34 8.15,-22.72 19.75,-42.36 34.82,-58.9 15.06,-16.79 33.46,-29.88 55.19,-39.27 21.73,-9.63 46.18,-14.44 73.34,-14.44 22.47,0 43.22,3.83 62.23,11.48 19.26,7.41 35.81,18.28 49.64,32.6 14.07,14.07 25.06,31.61 32.96,52.6 7.91,20.74 11.86,44.45 11.86,71.12 0,10.37 -1.11,17.28 -3.34,20.74 -2.22,3.46 -6.42,5.19 -12.59,5.19l-250.77 0c0.74,23.7 3.95,44.32 9.63,61.86 5.92,17.53 14.07,32.22 24.45,44.08 10.37,11.6 22.72,20.37 37.04,26.3 14.32,5.68 30.37,8.52 48.15,8.52 16.55,0 30.75,-1.86 42.6,-5.56 12.1,-3.95 22.47,-8.15 31.11,-12.6 8.65,-4.44 15.81,-8.51 21.49,-12.22 5.92,-3.95 10.99,-5.93 15.19,-5.93 5.43,0 9.63,2.1 12.59,6.3l18.52 24.08zm201.79 -130.76c13.33,0 25.06,-1.85 35.19,-5.56 10.12,-3.7 18.64,-8.89 25.56,-15.55 6.91,-6.67 12.1,-14.57 15.55,-23.71 3.46,-9.38 5.19,-19.63 5.19,-30.74 0,-22.97 -7.04,-41.24 -21.11,-54.83 -13.83,-13.58 -33.96,-20.37 -60.38,-20.37 -26.67,0 -47.04,6.79 -61.12,20.37 -13.83,13.59 -20.74,31.86 -20.74,54.83 0,11.11 1.72,21.36 5.18,30.74 3.71,9.14 9.01,17.04 15.93,23.71 6.91,6.66 15.43,11.85 25.56,15.55 10.12,3.71 21.85,5.56 35.19,5.56zm118.9 203.73c0,-9.14 -2.59,-16.54 -7.78,-22.22 -5.18,-5.69 -12.22,-10.13 -21.11,-13.34 -8.64,-3.21 -18.77,-5.43 -30.37,-6.67 -11.61,-1.48 -23.96,-2.59 -37.05,-3.33 -12.84,-0.74 -25.93,-1.48 -39.26,-2.22 -13.34,-0.74 -26.18,-1.98 -38.52,-3.71 -13.83,6.42 -25.19,14.57 -34.08,24.45 -8.65,9.63 -12.97,20.99 -12.97,34.08 0,8.39 2.1,16.17 6.3,23.33 4.45,7.41 11.11,13.71 20,18.9 8.89,5.43 20.01,9.63 33.34,12.59 13.58,3.21 29.51,4.82 47.78,4.82 17.78,0 33.71,-1.61 47.79,-4.82 14.07,-3.21 25.93,-7.78 35.56,-13.71 9.87,-5.92 17.41,-12.96 22.59,-21.11 5.19,-8.15 7.78,-17.16 7.78,-27.04zm67.05 -380.79l0 24.45c0,8.15 -5.19,13.33 -15.56,15.56l-42.6 5.55c8.4,16.3 12.6,34.33 12.6,54.08 0,18.28 -3.59,34.95 -10.75,50.01 -6.91,14.82 -16.54,27.54 -28.89,38.15 -12.35,10.62 -27.16,18.77 -44.45,24.45 -17.29,5.68 -36.05,8.52 -56.3,8.52 -17.54,0 -34.08,-2.1 -49.64,-6.3 -7.9,4.94 -13.95,10.25 -18.15,15.93 -4.2,5.43 -6.3,10.99 -6.3,16.67 0,8.89 3.58,15.68 10.75,20.37 7.41,4.45 17.04,7.66 28.89,9.63 11.85,1.98 25.31,3.21 40.37,3.71 15.31,0.49 30.87,1.36 46.68,2.59 16.05,0.99 31.6,2.84 46.67,5.56 15.31,2.71 28.89,7.16 40.75,13.33 11.85,6.17 21.36,14.69 28.52,25.56 7.41,10.87 11.11,24.94 11.11,42.23 0,16.05 -4.07,31.61 -12.22,46.67 -7.91,15.06 -19.39,28.4 -34.45,40.01 -15.07,11.85 -33.59,21.23 -55.56,28.15 -21.74,7.16 -46.31,10.74 -73.72,10.74 -27.41,0 -51.36,-2.72 -71.86,-8.15 -20.5,-5.43 -37.54,-12.72 -51.11,-21.85 -13.58,-9.14 -23.83,-19.76 -30.74,-31.86 -6.67,-11.85 -10,-24.32 -10,-37.41 0,-18.52 5.8,-34.2 17.41,-47.05 11.6,-12.84 27.52,-23.09 47.77,-30.74 -11.11,-4.94 -20,-11.48 -26.66,-19.63 -6.42,-8.4 -9.63,-19.63 -9.63,-33.71 0,-5.43 0.99,-10.99 2.96,-16.67 1.98,-5.93 4.94,-11.73 8.89,-17.41 4.19,-5.92 9.25,-11.48 15.18,-16.67 5.93,-5.18 12.84,-9.75 20.74,-13.7 -18.52,-10.37 -32.96,-24.08 -43.32,-41.12 -10.38,-17.28 -15.56,-37.29 -15.56,-60.01 0,-18.27 3.45,-34.82 10.37,-49.63 7.16,-15.07 17.03,-27.78 29.62,-38.15 12.6,-10.62 27.54,-18.77 44.82,-24.45 17.53,-5.68 36.67,-8.52 57.42,-8.52 16.3,0 31.48,1.85 45.56,5.55 14.08,3.46 26.92,8.65 38.52,15.56l101.87 0zm360.86 -14.81l0 375.23 -39.27 0c-9.38,0 -15.31,-4.57 -17.78,-13.71l-5.18 -40.37c-16.3,18.02 -34.57,32.59 -54.82,43.71 -20.25,10.86 -43.46,16.29 -69.64,16.29 -20.5,0 -38.65,-3.33 -54.45,-10 -15.56,-6.91 -28.65,-16.54 -39.27,-28.89 -10.62,-12.35 -18.64,-27.29 -24.08,-44.82 -5.18,-17.53 -7.77,-36.92 -7.77,-58.16l0 -239.28 65.93 0 0 239.28c0,28.4 6.42,50.38 19.26,65.94 13.09,15.56 32.97,23.34 59.64,23.34 19.51,0 37.66,-4.57 54.45,-13.71 17.04,-9.39 32.72,-22.23 47.04,-38.52l0 -276.33 65.94 0zm151.27 75.19c11.85,-25.68 26.42,-45.68 43.71,-60.01 17.28,-14.57 38.4,-21.85 63.34,-21.85 7.9,0 15.43,0.86 22.59,2.59 7.41,1.73 13.96,4.45 19.64,8.15l-4.82 49.27c-1.48,6.17 -5.19,9.26 -11.11,9.26 -3.46,0 -8.52,-0.75 -15.19,-2.23 -6.67,-1.48 -14.2,-2.22 -22.6,-2.22 -11.85,0 -22.47,1.73 -31.85,5.19 -9.14,3.45 -17.41,8.64 -24.82,15.55 -7.16,6.67 -13.7,15.07 -19.63,25.19 -5.68,9.88 -10.86,21.24 -15.56,34.08l0 237.07 -66.3 0 0 -375.23 37.78 0c7.16,0 12.1,1.35 14.82,4.07 2.71,2.72 4.57,7.41 5.55,14.08l4.45 57.04zm334.35 -81.12c27.41,0 52.11,4.57 74.08,13.7 21.98,9.14 40.75,22.11 56.31,38.9 15.56,16.79 27.41,37.16 35.56,61.12 8.4,23.7 12.59,50.25 12.59,79.64 0,29.63 -4.19,56.3 -12.59,80.01 -8.15,23.7 -20,43.95 -35.56,60.74 -15.56,16.8 -34.33,29.76 -56.31,38.9 -21.97,8.89 -46.67,13.33 -74.08,13.33 -27.66,0 -52.6,-4.44 -74.82,-13.33 -21.98,-9.14 -40.75,-22.1 -56.31,-38.9 -15.55,-16.79 -27.53,-37.04 -35.93,-60.74 -8.15,-23.71 -12.22,-50.38 -12.22,-80.01 0,-29.39 4.07,-55.94 12.22,-79.64 8.4,-23.96 20.38,-44.33 35.93,-61.12 15.56,-16.79 34.33,-29.76 56.31,-38.9 22.22,-9.13 47.16,-13.7 74.82,-13.7zm0 334.86c37.04,0 64.7,-12.35 82.97,-37.05 18.28,-24.94 27.42,-59.63 27.42,-104.08 0,-44.7 -9.14,-79.52 -27.42,-104.46 -18.27,-24.94 -45.93,-37.41 -82.97,-37.41 -18.77,0 -35.19,3.21 -49.26,9.63 -13.83,6.42 -25.44,15.68 -34.82,27.78 -9.14,12.1 -16.05,27.04 -20.75,44.82 -4.44,17.53 -6.66,37.41 -6.66,59.64 0,44.45 9.13,79.14 27.41,104.08 18.52,24.7 46.55,37.05 84.08,37.05zm867.05 -484.51l-216.32 530.81 -64.45 0 -216.32 -530.81 57.42 0c6.42,0 11.6,1.61 15.55,4.82 3.96,3.21 6.92,7.28 8.89,12.22l149.64 374.49c3.21,8.4 6.3,17.53 9.26,27.41 3.21,9.88 6.05,20.25 8.52,31.12 2.47,-10.87 5.06,-21.24 7.78,-31.12 2.72,-9.88 5.68,-19.01 8.89,-27.41l149.28 -374.49c1.48,-4.2 4.31,-8.03 8.52,-11.48 4.44,-3.71 9.76,-5.56 15.93,-5.56l57.41 0zm233.84 302.26c0,-15.31 -2.22,-29.26 -6.67,-41.86 -4.2,-12.84 -10.5,-23.83 -18.89,-32.96 -8.15,-9.39 -18.15,-16.55 -30,-21.49 -11.86,-5.18 -25.32,-7.78 -40.38,-7.78 -31.61,0 -56.67,9.26 -75.19,27.78 -18.28,18.28 -29.64,43.71 -34.08,76.31l205.21 0zm53.34 175.95c-8.15,9.88 -17.91,18.52 -29.26,25.93 -11.38,7.16 -23.6,13.09 -36.67,17.78 -12.86,4.69 -26.2,8.15 -40.01,10.37 -13.84,2.47 -27.54,3.7 -41.11,3.7 -25.93,0 -49.91,-4.32 -71.87,-12.96 -21.74,-8.89 -40.64,-21.73 -56.67,-38.52 -15.82,-17.04 -28.15,-38.03 -37.04,-62.98 -8.89,-24.94 -13.34,-53.58 -13.34,-85.93 0,-26.18 3.95,-50.62 11.86,-73.34 8.15,-22.72 19.74,-42.36 34.82,-58.9 15.05,-16.79 33.44,-29.88 55.19,-39.27 21.72,-9.63 46.17,-14.44 73.34,-14.44 22.46,0 43.21,3.83 62.23,11.48 19.26,7.41 35.8,18.28 49.64,32.6 14.07,14.07 25.05,31.61 32.96,52.6 7.89,20.74 11.86,44.45 11.86,71.12 0,10.37 -1.11,17.28 -3.34,20.74 -2.22,3.46 -6.43,5.19 -12.59,5.19l-250.77 0c0.74,23.7 3.94,44.32 9.63,61.86 5.92,17.53 14.07,32.22 24.45,44.08 10.37,11.6 22.7,20.37 37.04,26.3 14.31,5.68 30.37,8.52 48.15,8.52 16.54,0 30.75,-1.86 42.6,-5.56 12.09,-3.95 22.46,-8.15 31.11,-12.6 8.63,-4.44 15.8,-8.51 21.49,-12.22 5.93,-3.95 10.98,-5.93 15.19,-5.93 5.42,0 9.63,2.1 12.59,6.3l18.52 24.08zm137.35 -272.63c16.03,-17.04 33.81,-30.62 53.34,-40.74 19.5,-10.13 41.96,-15.19 67.41,-15.19 20.48,0 38.53,3.46 54.08,10.37 15.8,6.67 28.9,16.3 39.27,28.89 10.61,12.35 18.62,27.29 24.07,44.82 5.43,17.54 8.15,36.92 8.15,58.16l0 238.92 -66.3 0 0 -238.92c0,-28.4 -6.56,-50.38 -19.63,-65.94 -12.86,-15.8 -32.49,-23.7 -58.9,-23.7 -19.53,0 -37.78,4.69 -54.82,14.07 -16.8,9.39 -32.36,22.11 -46.67,38.16l0 276.33 -66.31 0 0 -545.63 66.31 0 0 220.4zm400.55 -50l0 375.23 -65.94 0 0 -375.23 65.94 0zm14.07 -117.8c0,6.42 -1.34,12.47 -4.07,18.15 -2.46,5.44 -5.93,10.37 -10.37,14.82 -4.21,4.2 -9.26,7.53 -15.19,10 -5.69,2.47 -11.72,3.71 -18.15,3.71 -6.43,0 -12.46,-1.24 -18.15,-3.71 -5.42,-2.47 -10.24,-5.8 -14.45,-10 -4.2,-4.45 -7.54,-9.38 -10,-14.82 -2.46,-5.68 -3.7,-11.73 -3.7,-18.15 0,-6.42 1.24,-12.47 3.7,-18.15 2.46,-5.92 5.8,-10.99 10,-15.18 4.21,-4.45 9.03,-7.91 14.45,-10.38 5.69,-2.47 11.72,-3.7 18.15,-3.7 6.43,0 12.46,1.23 18.15,3.7 5.93,2.47 10.98,5.93 15.19,10.38 4.44,4.19 7.91,9.26 10.37,15.18 2.73,5.68 4.07,11.73 4.07,18.15zm339.54 184.47c-1.98,2.72 -3.96,4.82 -5.92,6.3 -1.99,1.48 -4.71,2.22 -8.15,2.22 -3.71,0 -7.78,-1.48 -12.23,-4.45 -4.44,-3.21 -10,-6.66 -16.66,-10.37 -6.43,-3.7 -14.45,-7.03 -24.08,-10 -9.39,-3.21 -21.01,-4.81 -34.82,-4.81 -18.52,0 -34.82,3.33 -48.9,10 -14.07,6.42 -25.92,15.8 -35.56,28.15 -9.39,12.35 -16.56,27.29 -21.48,44.82 -4.71,17.53 -7.04,37.17 -7.04,58.9 0,22.72 2.6,42.96 7.78,60.74 5.19,17.54 12.46,32.36 21.86,44.45 9.63,11.86 21.11,20.99 34.44,27.42 13.58,6.17 28.77,9.26 45.57,9.26 16.03,0 29.26,-1.86 39.63,-5.56 10.37,-3.95 18.89,-8.27 25.56,-12.97 6.9,-4.69 12.59,-8.88 17.04,-12.59 4.68,-3.95 9.26,-5.93 13.7,-5.93 5.43,0 9.63,2.1 12.6,6.3l18.52 24.08c-8.15,10.12 -17.41,18.77 -27.78,25.93 -10.37,7.16 -21.62,13.21 -33.71,18.15 -11.85,4.69 -24.34,8.15 -37.41,10.37 -13.1,2.22 -26.43,3.33 -40.01,3.33 -23.47,0 -45.32,-4.32 -65.56,-12.96 -20,-8.65 -37.41,-21.11 -52.23,-37.41 -14.82,-16.55 -26.43,-36.8 -34.82,-60.75 -8.41,-23.95 -12.59,-51.24 -12.59,-81.86 0,-27.91 3.81,-53.71 11.48,-77.42 7.88,-23.71 19.26,-44.08 34.08,-61.12 15.05,-17.29 33.44,-30.74 55.19,-40.38 21.96,-9.63 47.15,-14.44 75.57,-14.44 26.4,0 49.63,4.32 69.63,12.96 20.24,8.4 38.16,20.38 53.71,35.93l-17.41 23.71zm385.31 -66.67l0 375.23 -39.27 0c-9.39,0 -15.32,-4.57 -17.78,-13.71l-5.18 -40.37c-16.3,18.02 -34.58,32.59 -54.82,43.71 -20.27,10.86 -43.48,16.29 -69.64,16.29 -20.51,0 -38.66,-3.33 -54.45,-10 -15.56,-6.91 -28.66,-16.54 -39.27,-28.89 -10.63,-12.35 -18.65,-27.29 -24.08,-44.82 -5.18,-17.53 -7.77,-36.92 -7.77,-58.16l0 -239.28 65.93 0 0 239.28c0,28.4 6.4,50.38 19.26,65.94 13.07,15.56 32.97,23.34 59.64,23.34 19.5,0 37.65,-4.57 54.45,-13.71 17.04,-9.39 32.7,-22.23 47.04,-38.52l0 -276.33 65.94 0zm156.82 -170.4l0 545.63 -65.94 0 0 -545.63 65.94 0zm294.4 376.72c-30.38,0.98 -56.31,3.46 -77.79,7.41 -21.25,3.7 -38.66,8.64 -52.23,14.81 -13.33,6.18 -23.1,13.46 -29.26,21.86 -5.93,8.39 -8.89,17.78 -8.89,28.15 0,9.88 1.61,18.4 4.81,25.56 3.21,7.16 7.54,13.09 12.97,17.78 5.69,4.44 12.22,7.78 19.63,10 7.65,1.98 15.8,2.96 24.45,2.96 11.61,0 22.22,-1.11 31.85,-3.33 9.63,-2.47 18.66,-5.93 27.04,-10.37 8.66,-4.45 16.81,-9.76 24.45,-15.93 7.91,-6.17 15.56,-13.21 22.97,-21.11l0 -77.79zm-212.99 -153.36c20.74,-20 43.1,-34.94 67.04,-44.82 23.95,-9.87 50.51,-14.81 79.64,-14.81 20.98,0 39.64,3.46 55.94,10.37 16.29,6.91 30,16.54 41.11,28.89 11.11,12.35 19.5,27.29 25.19,44.82 5.69,17.54 8.52,36.8 8.52,57.79l0 240.03 -29.26 0c-6.43,0 -11.35,-0.99 -14.82,-2.97 -3.47,-2.22 -6.16,-6.42 -8.15,-12.59l-7.41 -35.56c-9.87,9.14 -19.5,17.29 -28.89,24.45 -9.39,6.91 -19.26,12.84 -29.63,17.78 -10.37,4.69 -21.49,8.27 -33.34,10.74 -11.62,2.72 -24.58,4.07 -38.89,4.07 -14.58,0 -28.29,-1.97 -41.12,-5.92 -12.83,-4.2 -24.08,-10.37 -33.71,-18.52 -9.39,-8.15 -16.91,-18.4 -22.59,-30.75 -5.43,-12.59 -8.15,-27.41 -8.15,-44.45 0,-14.81 4.07,-29.01 12.22,-42.6 8.15,-13.83 21.35,-26.05 39.64,-36.67 18.28,-10.61 42.09,-19.26 71.49,-25.93 29.39,-6.91 65.43,-10.86 108.16,-11.85l0 -29.26c0,-29.14 -6.3,-51.12 -18.89,-65.94 -12.6,-15.06 -30.99,-22.59 -55.2,-22.59 -16.29,0 -30,2.1 -41.11,6.29 -10.88,3.96 -20.38,8.52 -28.52,13.71 -7.92,4.94 -14.82,9.51 -20.75,13.71 -5.69,3.95 -11.35,5.92 -17.04,5.92 -4.44,0 -8.28,-1.11 -11.48,-3.33 -3.2,-2.47 -5.93,-5.43 -8.15,-8.89l-11.85 -21.12zm424.6 22.23c11.85,-25.68 26.43,-45.68 43.71,-60.01 17.28,-14.57 38.39,-21.85 63.34,-21.85 7.91,0 15.43,0.86 22.6,2.59 7.41,1.73 13.94,4.45 19.63,8.15l-4.82 49.27c-1.48,6.17 -5.18,9.26 -11.11,9.26 -3.46,0 -8.52,-0.75 -15.19,-2.23 -6.66,-1.48 -14.2,-2.22 -22.59,-2.22 -11.85,0 -22.46,1.73 -31.86,5.19 -9.13,3.45 -17.41,8.64 -24.81,15.55 -7.18,6.67 -13.71,15.07 -19.64,25.19 -5.69,9.88 -10.87,21.24 -15.55,34.08l0 237.07 -66.31 0 0 -375.23 37.78 0c7.17,0 12.09,1.35 14.82,4.07 2.73,2.72 4.58,7.41 5.56,14.08l4.44 57.04z"/>
   <path class="fil2" d="M-12831.33 3023.72l-171.87 0 0 470.43 -71.49 0 0 -470.43 -172.24 0 0 -60.38 415.6 0 0 60.38zm28.19 170.39c11.85,-25.68 26.42,-45.69 43.7,-60.01 17.29,-14.57 38.41,-21.85 63.35,-21.85 7.9,0 15.43,0.86 22.59,2.59 7.41,1.73 13.96,4.45 19.63,8.15l-4.81 49.27c-1.48,6.17 -5.19,9.26 -11.11,9.26 -3.46,0 -8.52,-0.74 -15.19,-2.23 -6.67,-1.48 -14.2,-2.22 -22.6,-2.22 -11.85,0 -22.47,1.73 -31.85,5.19 -9.14,3.45 -17.41,8.64 -24.82,15.55 -7.16,6.67 -13.71,15.07 -19.63,25.19 -5.68,9.88 -10.87,21.24 -15.56,34.08l0 237.07 -66.3 0 0 -375.23 37.78 0c7.16,0 12.1,1.35 14.81,4.07 2.72,2.72 4.57,7.41 5.56,14.08l4.45 57.04zm388.94 131.13c-30.37,0.98 -56.3,3.46 -77.78,7.41 -21.24,3.7 -38.65,8.64 -52.23,14.81 -13.33,6.18 -23.09,13.46 -29.26,21.86 -5.93,8.39 -8.89,17.78 -8.89,28.15 0,9.88 1.6,18.4 4.81,25.56 3.21,7.16 7.54,13.09 12.97,17.78 5.68,4.44 12.22,7.78 19.63,10 7.65,1.98 15.8,2.96 24.45,2.96 11.6,0 22.22,-1.11 31.85,-3.33 9.63,-2.47 18.65,-5.93 27.04,-10.37 8.65,-4.45 16.8,-9.76 24.45,-15.93 7.89,-6.17 15.55,-13.21 22.96,-21.11l0 -77.79zm-212.98 -153.35c20.74,-20.01 43.09,-34.95 67.04,-44.83 23.96,-9.87 50.5,-14.81 79.64,-14.81 20.99,0 39.64,3.46 55.92,10.37 16.3,6.91 30.01,16.54 41.12,28.89 11.11,12.35 19.51,27.29 25.19,44.82 5.68,17.54 8.52,36.8 8.52,57.79l0 240.03 -29.26 0c-6.43,0 -11.36,-0.99 -14.82,-2.97 -3.46,-2.22 -6.17,-6.42 -8.15,-12.59l-7.41 -35.56c-9.87,9.14 -19.51,17.29 -28.88,24.45 -9.39,6.91 -19.26,12.84 -29.63,17.78 -10.38,4.69 -21.49,8.27 -33.34,10.74 -11.61,2.72 -24.57,4.07 -38.9,4.07 -14.57,0 -28.27,-1.97 -41.11,-5.92 -12.84,-4.2 -24.08,-10.37 -33.71,-18.52 -9.38,-8.15 -16.91,-18.4 -22.59,-30.75 -5.44,-12.59 -8.15,-27.41 -8.15,-44.45 0,-14.81 4.07,-29.01 12.22,-42.6 8.15,-13.83 21.36,-26.05 39.63,-36.67 18.28,-10.61 42.11,-19.26 71.49,-25.93 29.39,-6.91 65.44,-10.86 108.16,-11.85l0 -29.26c0,-29.14 -6.3,-51.12 -18.88,-65.94 -12.6,-15.06 -31,-22.59 -55.2,-22.59 -16.3,0 -30,2.1 -41.11,6.3 -10.87,3.95 -20.38,8.51 -28.53,13.7 -7.9,4.94 -14.81,9.51 -20.74,13.71 -5.68,3.95 -11.36,5.92 -17.04,5.92 -4.44,0 -8.27,-1.11 -11.48,-3.33 -3.21,-2.47 -5.93,-5.43 -8.15,-8.89l-11.85 -21.11zm623.13 13.7c-1.97,2.72 -3.95,4.82 -5.92,6.3 -1.98,1.48 -4.7,2.22 -8.15,2.22 -3.71,0 -7.78,-1.48 -12.23,-4.44 -4.44,-3.21 -10,-6.67 -16.66,-10.38 -6.43,-3.7 -14.45,-7.03 -24.08,-10 -9.39,-3.21 -20.99,-4.81 -34.82,-4.81 -18.52,0 -34.82,3.33 -48.9,10 -14.07,6.42 -25.93,15.8 -35.56,28.15 -9.38,12.35 -16.54,27.29 -21.48,44.82 -4.69,17.53 -7.04,37.17 -7.04,58.9 0,22.72 2.59,42.96 7.78,60.74 5.19,17.54 12.47,32.36 21.86,44.45 9.63,11.86 21.11,20.99 34.44,27.42 13.59,6.17 28.77,9.26 45.57,9.26 16.04,0 29.26,-1.86 39.63,-5.56 10.37,-3.95 18.89,-8.27 25.56,-12.96 6.91,-4.7 12.59,-8.89 17.04,-12.6 4.69,-3.95 9.26,-5.93 13.7,-5.93 5.44,0 9.63,2.1 12.6,6.3l18.52 24.08c-8.15,10.12 -17.41,18.77 -27.78,25.93 -10.37,7.16 -21.61,13.21 -33.71,18.15 -11.85,4.69 -24.33,8.15 -37.41,10.37 -13.09,2.22 -26.43,3.33 -40.01,3.33 -23.46,0 -45.31,-4.32 -65.56,-12.96 -20,-8.65 -37.41,-21.11 -52.23,-37.41 -14.82,-16.55 -26.42,-36.8 -34.82,-60.75 -8.4,-23.95 -12.59,-51.24 -12.59,-81.86 0,-27.91 3.82,-53.71 11.48,-77.42 7.9,-23.71 19.26,-44.08 34.08,-61.12 15.06,-17.28 33.46,-30.74 55.19,-40.37 21.98,-9.64 47.16,-14.45 75.56,-14.45 26.43,0 49.64,4.32 69.64,12.96 20.25,8.4 38.16,20.38 53.71,35.93l-17.41 23.71zm143.07 -237.07l0 321.16 17.04 0c4.93,0 9.01,-0.62 12.22,-1.86 3.45,-1.48 7.04,-4.32 10.74,-8.52l118.53 -127.05c3.46,-4.2 7.04,-7.41 10.75,-9.63 3.95,-2.47 9.13,-3.7 15.55,-3.7l59.64 0 -138.16 147.05c-6.67,8.4 -13.83,14.94 -21.49,19.63 4.45,2.97 8.4,6.42 11.86,10.37 3.7,3.71 7.15,8.03 10.37,12.97l146.68 185.21 -58.89 0c-5.69,0 -10.62,-0.87 -14.82,-2.6 -3.95,-1.97 -7.41,-5.43 -10.37,-10.37l-123.35 -153.72c-3.71,-5.19 -7.41,-8.52 -11.11,-10 -3.46,-1.73 -8.89,-2.59 -16.3,-2.59l-18.89 0 0 179.28 -66.31 0 0 -545.63 66.31 0zm363.66 170.4l0 375.23 -65.94 0 0 -375.23 65.94 0zm14.07 -117.8c0,6.42 -1.35,12.47 -4.07,18.15 -2.47,5.44 -5.93,10.38 -10.37,14.82 -4.2,4.2 -9.26,7.53 -15.19,10 -5.68,2.47 -11.73,3.71 -18.15,3.71 -6.42,0 -12.47,-1.24 -18.15,-3.71 -5.43,-2.47 -10.25,-5.8 -14.45,-10 -4.2,-4.44 -7.53,-9.38 -10,-14.82 -2.47,-5.68 -3.7,-11.73 -3.7,-18.15 0,-6.42 1.23,-12.47 3.7,-18.15 2.47,-5.92 5.8,-10.99 10,-15.18 4.2,-4.45 9.02,-7.91 14.45,-10.38 5.68,-2.46 11.73,-3.7 18.15,-3.7 6.42,0 12.47,1.24 18.15,3.7 5.93,2.47 10.99,5.93 15.19,10.38 4.44,4.19 7.9,9.26 10.37,15.18 2.72,5.68 4.07,11.73 4.07,18.15zm140.62 172.25c8.15,-9.14 16.79,-17.41 25.93,-24.82 9.13,-7.41 18.77,-13.71 28.89,-18.89 10.37,-5.43 21.24,-9.51 32.6,-12.23 11.6,-2.96 24.07,-4.44 37.41,-4.44 20.49,0 38.52,3.46 54.08,10.37 15.8,6.67 28.89,16.3 39.26,28.89 10.62,12.35 18.65,27.29 24.08,44.82 5.43,17.54 8.15,36.92 8.15,58.16l0 238.92 -66.3 0 0 -238.92c0,-28.4 -6.55,-50.38 -19.64,-65.94 -12.84,-15.8 -32.47,-23.7 -58.89,-23.7 -19.51,0 -37.78,4.69 -54.82,14.07 -16.8,9.39 -32.35,22.1 -46.68,38.16l0 276.33 -66.3 0 0 -375.23 39.63 0c9.39,0 15.19,4.56 17.41,13.7l5.19 40.75zm465.75 137.42c13.34,0 25.07,-1.85 35.19,-5.55 10.13,-3.71 18.65,-8.89 25.56,-15.56 6.92,-6.67 12.1,-14.57 15.55,-23.71 3.45,-9.38 5.19,-19.63 5.19,-30.74 0,-22.97 -7.04,-41.24 -21.11,-54.83 -13.83,-13.58 -33.96,-20.37 -60.38,-20.37 -26.67,0 -47.04,6.79 -61.12,20.37 -13.82,13.59 -20.74,31.86 -20.74,54.83 0,11.11 1.73,21.36 5.19,30.74 3.7,9.14 9.01,17.04 15.93,23.71 6.91,6.67 15.43,11.85 25.55,15.56 10.13,3.7 21.86,5.55 35.19,5.55zm118.9 203.73c0,-9.14 -2.6,-16.54 -7.78,-22.22 -5.19,-5.69 -12.23,-10.13 -21.12,-13.34 -8.64,-3.21 -18.75,-5.43 -30.36,-6.67 -11.61,-1.48 -23.95,-2.59 -37.04,-3.33 -12.84,-0.74 -25.93,-1.48 -39.27,-2.22 -13.33,-0.74 -26.17,-1.98 -38.52,-3.71 -13.83,6.42 -25.19,14.57 -34.08,24.45 -8.64,9.63 -12.96,20.99 -12.96,34.08 0,8.39 2.1,16.17 6.3,23.33 4.44,7.41 11.11,13.71 20,18.9 8.89,5.43 20,9.63 33.34,12.59 13.58,3.21 29.5,4.82 47.78,4.82 17.78,0 33.71,-1.61 47.78,-4.82 14.08,-3.21 25.92,-7.78 35.55,-13.71 9.88,-5.92 17.41,-12.96 22.6,-21.11 5.18,-8.15 7.78,-17.16 7.78,-27.04zm67.04 -380.79l0 24.45c0,8.15 -5.18,13.33 -15.55,15.56l-42.6 5.55c8.39,16.3 12.59,34.33 12.59,54.08 0,18.28 -3.58,34.95 -10.74,50.01 -6.92,14.82 -16.55,27.54 -28.89,38.15 -12.35,10.62 -27.17,18.77 -44.44,24.45 -17.29,5.68 -36.06,8.52 -56.31,8.52 -17.53,0 -34.07,-2.1 -49.63,-6.3 -7.91,4.94 -13.96,10.25 -18.15,15.93 -4.2,5.43 -6.3,10.99 -6.3,16.67 0,8.89 3.58,15.68 10.74,20.37 7.41,4.45 17.04,7.66 28.89,9.63 11.86,1.98 25.31,3.21 40.38,3.71 15.31,0.49 30.87,1.36 46.67,2.59 16.05,0.99 31.6,2.84 46.67,5.56 15.3,2.71 28.89,7.16 40.74,13.33 11.85,6.17 21.36,14.69 28.52,25.56 7.41,10.87 11.12,24.94 11.12,42.23 0,16.05 -4.08,31.61 -12.23,46.67 -7.9,15.06 -19.38,28.4 -34.45,40.01 -15.06,11.85 -33.58,21.23 -55.56,28.15 -21.72,7.16 -46.29,10.74 -73.7,10.74 -27.41,0 -51.37,-2.72 -71.86,-8.15 -20.5,-5.43 -37.54,-12.72 -51.12,-21.85 -13.58,-9.14 -23.83,-19.76 -30.75,-31.86 -6.66,-11.85 -10,-24.32 -10,-37.41 0,-18.52 5.81,-34.2 17.41,-47.04 11.61,-12.85 27.54,-23.1 47.79,-30.75 -11.12,-4.94 -20.01,-11.48 -26.67,-19.63 -6.42,-8.4 -9.63,-19.63 -9.63,-33.71 0,-5.43 0.98,-10.99 2.96,-16.67 1.97,-5.92 4.94,-11.73 8.89,-17.41 4.2,-5.92 9.26,-11.48 15.19,-16.67 5.92,-5.18 12.84,-9.75 20.74,-13.7 -18.52,-10.37 -32.97,-24.08 -43.34,-41.12 -10.37,-17.28 -15.56,-37.29 -15.56,-60.01 0,-18.27 3.46,-34.81 10.38,-49.63 7.15,-15.06 17.03,-27.78 29.63,-38.15 12.59,-10.62 27.53,-18.77 44.82,-24.45 17.53,-5.68 36.67,-8.52 57.41,-8.52 16.3,0 31.49,1.85 45.56,5.55 14.08,3.46 26.92,8.65 38.52,15.56l101.86 0z"/>
  </g>
  <path class="fil1" d="M-13241.91 1645.51l0 -70.51c0,-8.02 0.4,-15.87 1.19,-23.55 0.8,-7.76 1.86,-15.96 3.18,-24.6l22.09 0c1.32,8.64 2.34,16.84 3.04,24.6 0.8,7.68 1.2,15.53 1.2,23.55l0 70.51 -30.7 0zm-5.02 -162.31c0,-2.82 0.48,-5.42 1.45,-7.8 1.06,-2.47 2.47,-4.59 4.23,-6.35 1.77,-1.77 3.89,-3.14 6.35,-4.11 2.47,-1.05 5.12,-1.58 7.94,-1.58 2.74,0 5.34,0.53 7.81,1.58 2.47,0.97 4.58,2.34 6.35,4.11 1.85,1.76 3.3,3.88 4.36,6.35 1.06,2.38 1.59,4.98 1.59,7.8 0,2.82 -0.53,5.47 -1.59,7.94 -1.06,2.38 -2.51,4.45 -4.36,6.22 -1.77,1.76 -3.88,3.17 -6.35,4.23 -2.47,1.06 -5.07,1.59 -7.81,1.59 -2.82,0 -5.47,-0.53 -7.94,-1.59 -2.46,-1.06 -4.58,-2.47 -6.35,-4.23 -1.76,-1.77 -3.17,-3.84 -4.23,-6.22 -0.97,-2.47 -1.45,-5.12 -1.45,-7.94zm259.55 -73.29l0 191.29 -18.26 0c-2.82,0 -5.2,-0.45 -7.14,-1.33 -1.85,-0.97 -3.66,-2.56 -5.42,-4.76l-99.88 -127.52c0.53,5.82 0.79,11.2 0.79,16.14l0 117.47 -31.34 0 0 -191.29 18.65 0c1.5,0 2.77,0.09 3.83,0.27 1.14,0.08 2.11,0.35 2.91,0.79 0.88,0.35 1.72,0.93 2.51,1.72 0.79,0.7 1.68,1.68 2.65,2.91l100.27 128.05c-0.26,-3.09 -0.48,-6.13 -0.66,-9.13 -0.17,-3 -0.26,-5.78 -0.26,-8.32l0 -116.29 31.35 0zm140.75 162.58c6.88,0 13.01,-1.15 18.39,-3.44 5.47,-2.3 10.05,-5.51 13.76,-9.66 3.7,-4.14 6.53,-9.17 8.47,-15.08 2.02,-5.91 3.04,-12.52 3.04,-19.83l0 -114.57 35.58 0 0 114.57c0,11.36 -1.85,21.9 -5.55,31.6 -3.62,9.62 -8.87,17.95 -15.74,25.01 -6.8,6.96 -15.09,12.43 -24.88,16.4 -9.79,3.88 -20.81,5.82 -33.07,5.82 -12.35,0 -23.41,-1.94 -33.2,-5.82 -9.79,-3.97 -18.12,-9.44 -25,-16.4 -6.79,-7.06 -12.04,-15.39 -15.74,-25.01 -3.62,-9.7 -5.42,-20.24 -5.42,-31.6l0 -114.57 35.57 0 0 114.43c0,7.31 0.97,13.93 2.91,19.84 2.03,5.91 4.9,10.98 8.6,15.21 3.79,4.15 8.38,7.36 13.76,9.66 5.47,2.29 11.64,3.44 18.52,3.44zm176.26 -134.27l0 53.05 66.93 0 0 27.38 -66.93 0 0 54.1 84.93 0 0 28.45 -120.64 0 0 -191.29 120.64 0 0 28.31 -84.93 0zm301.53 -28.31l-77.25 191.29 -32.15 0 -77.26 -191.29 28.58 0c3.09,0 5.6,0.75 7.54,2.25 1.94,1.5 3.4,3.44 4.37,5.82l45.11 116.67c1.5,3.79 2.91,7.98 4.23,12.57 1.41,4.5 2.74,9.22 3.97,14.16 1.06,-4.94 2.21,-9.66 3.44,-14.16 1.23,-4.59 2.6,-8.78 4.1,-12.57l44.84 -116.67c0.7,-2.03 2.07,-3.88 4.1,-5.56 2.11,-1.67 4.67,-2.51 7.67,-2.51l28.71 0zm217.18 95.65c0,14.02 -2.33,27.02 -7.01,39.01 -4.58,11.91 -11.11,22.23 -19.57,30.96 -8.46,8.73 -18.65,15.57 -30.56,20.51 -11.9,4.85 -25.13,7.27 -39.68,7.27 -14.47,0 -27.65,-2.42 -39.56,-7.27 -11.91,-4.94 -22.14,-11.78 -30.69,-20.51 -8.47,-8.73 -15.04,-19.05 -19.71,-30.96 -4.68,-11.99 -7.01,-24.99 -7.01,-39.01 0,-14.02 2.33,-26.99 7.01,-38.9 4.67,-11.99 11.24,-22.35 19.71,-31.08 8.55,-8.74 18.78,-15.53 30.69,-20.38 11.91,-4.94 25.09,-7.41 39.56,-7.41 9.7,0 18.83,1.15 27.38,3.44 8.55,2.21 16.4,5.38 23.55,9.53 7.14,4.06 13.54,9.04 19.18,14.95 5.72,5.82 10.57,12.35 14.54,19.58 3.97,7.23 6.97,15.08 9,23.55 2.12,8.46 3.17,17.37 3.17,26.72zm-36.37 0c0,-10.5 -1.41,-19.89 -4.23,-28.18 -2.82,-8.38 -6.83,-15.48 -12.04,-21.3 -5.2,-5.82 -11.55,-10.27 -19.05,-13.36 -7.41,-3.09 -15.79,-4.63 -25.13,-4.63 -9.35,0 -17.78,1.54 -25.27,4.63 -7.41,3.09 -13.76,7.54 -19.05,13.36 -5.21,5.82 -9.22,12.92 -12.04,21.3 -2.82,8.29 -4.23,17.68 -4.23,28.18 0,10.49 1.41,19.93 4.23,28.3 2.82,8.29 6.83,15.34 12.04,21.17 5.29,5.73 11.64,10.14 19.05,13.22 7.49,3.09 15.92,4.63 25.27,4.63 9.34,0 17.72,-1.54 25.13,-4.63 7.5,-3.08 13.85,-7.49 19.05,-13.22 5.21,-5.83 9.22,-12.88 12.04,-21.17 2.82,-8.37 4.23,-17.81 4.23,-28.3zm120.15 -95.65l0 75.67c0,8.03 -0.4,15.92 -1.19,23.68 -0.8,7.68 -1.81,15.83 -3.05,24.47l-22.22 0c-1.24,-8.64 -2.25,-16.79 -3.04,-24.47 -0.8,-7.76 -1.2,-15.65 -1.2,-23.68l0 -75.67 30.7 0zm-35.85 173.29c0,-2.73 0.48,-5.33 1.45,-7.8 1.06,-2.47 2.47,-4.59 4.23,-6.35 1.86,-1.77 4.01,-3.18 6.49,-4.24 2.46,-1.05 5.11,-1.58 7.93,-1.58 2.74,0 5.34,0.53 7.81,1.58 2.47,1.06 4.58,2.47 6.35,4.24 1.85,1.76 3.31,3.88 4.36,6.35 1.06,2.47 1.59,5.07 1.59,7.8 0,2.83 -0.53,5.47 -1.59,7.94 -1.05,2.38 -2.51,4.45 -4.36,6.22 -1.77,1.76 -3.88,3.13 -6.35,4.1 -2.47,1.06 -5.07,1.59 -7.81,1.59 -2.82,0 -5.47,-0.53 -7.93,-1.59 -2.48,-0.97 -4.63,-2.34 -6.49,-4.1 -1.76,-1.77 -3.17,-3.84 -4.23,-6.22 -0.97,-2.47 -1.45,-5.11 -1.45,-7.94z"/>
  <path class="fil3" d="M-13039.84 4187.89c-3.25,27.86 -13.56,49.38 -30.93,64.57 -17.24,15.07 -40.21,22.61 -68.91,22.61 -31.11,0 -56.07,-11.15 -74.88,-33.46 -18.69,-22.31 -28.03,-52.15 -28.03,-89.53l0 -25.32c0,-24.48 4.34,-46 13.02,-64.57 8.8,-18.57 21.22,-32.8 37.26,-42.69 16.04,-10 34.61,-15.01 55.71,-15.01 27.97,0 50.4,7.84 67.28,23.52 16.88,15.55 26.71,37.13 29.48,64.75l-34.91 0c-3.01,-20.98 -9.58,-36.18 -19.71,-45.58 -10.01,-9.41 -24.06,-14.11 -42.14,-14.11 -22.19,0 -39.61,8.2 -52.27,24.6 -12.54,16.4 -18.81,39.73 -18.81,69.99l0 25.51c0,28.57 5.96,51.3 17.9,68.18 11.94,16.88 28.64,25.33 50.1,25.33 19.29,0 34.07,-4.35 44.31,-13.03 10.37,-8.8 17.25,-24.05 20.62,-45.76l34.91 0zm163.14 64.21c-13.02,15.31 -32.13,22.97 -57.33,22.97 -20.86,0 -36.78,-6.03 -47.75,-18.09 -10.85,-12.17 -16.34,-30.14 -16.46,-53.89l0 -127.34 33.46 0 0 126.43c0,29.66 12.06,44.5 36.18,44.5 25.56,0 42.56,-9.53 51,-28.58l0 -142.35 33.46 0 0 195.7 -31.83 0 -0.73 -19.35zm164.77 22.97c-26.52,0 -48.11,-8.68 -64.75,-26.05 -16.64,-17.48 -24.96,-40.81 -24.96,-69.99l0 -6.15c0,-19.41 3.68,-36.72 11.04,-51.91 7.47,-15.31 17.84,-27.25 31.11,-35.81 13.38,-8.68 27.85,-13.02 43.4,-13.02 25.45,0 45.22,8.38 59.33,25.14 14.11,16.76 21.16,40.75 21.16,71.98l0 13.93 -132.58 0c0.49,19.29 6.09,34.91 16.82,46.84 10.86,11.82 24.6,17.73 41.24,17.73 11.82,0 21.83,-2.41 30.03,-7.24 8.19,-4.82 15.37,-11.21 21.52,-19.17l20.44 15.92c-16.4,25.2 -41,37.8 -73.8,37.8zm-4.16 -175.44c-13.5,0 -24.84,4.94 -34,14.83 -9.16,9.77 -14.83,23.51 -17,41.24l98.03 0 0 -2.53c-0.96,-17.01 -5.55,-30.15 -13.75,-39.43 -8.2,-9.41 -19.29,-14.11 -33.28,-14.11zm151.03 -23.88l1.08 24.6c14.95,-18.81 34.49,-28.21 58.61,-28.21 41.35,0 62.21,23.33 62.57,69.99l0 129.32 -33.46 0 0 -129.5c-0.12,-14.11 -3.37,-24.54 -9.76,-31.29 -6.27,-6.75 -16.1,-10.13 -29.49,-10.13 -10.85,0 -20.37,2.9 -28.57,8.69 -8.2,5.78 -14.59,13.38 -19.17,22.78l0 139.45 -33.46 0 0 -195.7 31.65 0zm218.12 -47.38l0 47.38 36.54 0 0 25.87 -36.54 0 0 121.36c0,7.84 1.63,13.75 4.89,17.73 3.25,3.85 8.8,5.78 16.64,5.78 3.85,0 9.16,-0.72 15.91,-2.17l0 27.13c-8.8,2.41 -17.36,3.62 -25.68,3.62 -14.95,0 -26.22,-4.52 -33.82,-13.57 -7.6,-9.04 -11.4,-21.88 -11.4,-38.52l0 -121.36 -35.63 0 0 -25.87 35.63 0 0 -47.38 33.46 0zm196.61 243.08c-1.93,-3.85 -3.5,-10.73 -4.7,-20.62 -15.56,16.16 -34.13,24.24 -55.71,24.24 -19.3,0 -35.15,-5.43 -47.57,-16.28 -12.3,-10.97 -18.45,-24.84 -18.45,-41.6 0,-20.37 7.72,-36.17 23.15,-47.38 15.56,-11.34 37.38,-17.01 65.48,-17.01l32.55 0 0 -15.37c0,-11.7 -3.49,-20.98 -10.49,-27.85 -6.99,-7 -17.3,-10.49 -30.93,-10.49 -11.93,0 -21.94,3.01 -30.02,9.04 -8.08,6.03 -12.12,13.32 -12.12,21.89l-33.64 0c0,-9.77 3.44,-19.18 10.31,-28.22 6.99,-9.16 16.4,-16.4 28.21,-21.7 11.94,-5.31 25.03,-7.96 39.25,-7.96 22.55,0 40.22,5.66 53,17 12.78,11.21 19.41,26.71 19.89,46.48l0 90.07c0,17.97 2.29,32.26 6.88,42.87l0 2.89 -35.09 0zm-55.53 -25.5c10.49,0 20.44,-2.71 29.84,-8.14 9.41,-5.42 16.22,-12.48 20.44,-21.16l0 -40.15 -26.23 0c-40.99,0 -61.49,12 -61.49,35.99 0,10.49 3.5,18.69 10.49,24.6 6.99,5.91 15.98,8.86 26.95,8.86zm167.85 -170.2l1.08 24.6c14.95,-18.81 34.49,-28.21 58.6,-28.21 41.36,0 62.22,23.33 62.58,69.99l0 129.32 -33.46 0 0 -129.5c-0.12,-14.11 -3.37,-24.54 -9.77,-31.29 -6.27,-6.75 -16.09,-10.13 -29.48,-10.13 -10.85,0 -20.37,2.9 -28.57,8.69 -8.2,5.78 -14.59,13.38 -19.17,22.78l0 139.45 -33.47 0 0 -195.7 31.66 0zm163.86 96.05c0,-19.18 3.74,-36.42 11.22,-51.73 7.59,-15.32 18.08,-27.13 31.47,-35.45 13.5,-8.32 28.87,-12.48 46.12,-12.48 26.65,0 48.17,9.22 64.57,27.67 16.52,18.45 24.78,42.99 24.78,73.61l0 2.35c0,19.06 -3.68,36.18 -11.04,51.37 -7.23,15.07 -17.66,26.83 -31.29,35.27 -13.5,8.44 -29.06,12.66 -46.66,12.66 -26.53,0 -48.05,-9.22 -64.57,-27.67 -16.4,-18.45 -24.6,-42.87 -24.6,-73.25l0 -2.35zm33.64 3.97c0,21.71 5.01,39.13 15.01,52.28 10.13,13.14 23.64,19.71 40.52,19.71 17,0 30.51,-6.63 40.51,-19.9 10.01,-13.38 15.02,-32.07 15.02,-56.06 0,-21.47 -5.13,-38.83 -15.38,-52.09 -10.13,-13.39 -23.63,-20.08 -40.51,-20.08 -16.52,0 -29.85,6.57 -39.97,19.71 -10.13,13.15 -15.2,31.96 -15.2,56.43zm300.43 43.77c0,-9.04 -3.44,-16.03 -10.32,-20.98 -6.75,-5.06 -18.62,-9.4 -35.63,-13.02 -16.88,-3.62 -30.32,-7.96 -40.33,-13.02 -9.89,-5.07 -17.24,-11.09 -22.07,-18.09 -4.7,-6.99 -7.05,-15.31 -7.05,-24.96 0,-16.03 6.75,-29.6 20.26,-40.69 13.62,-11.1 30.99,-16.64 52.09,-16.64 22.18,0 40.15,5.72 53.9,17.18 13.86,11.45 20.79,26.1 20.79,43.95l-33.63 0c0,-9.16 -3.93,-17.06 -11.76,-23.69 -7.72,-6.64 -17.49,-9.95 -29.3,-9.95 -12.18,0 -21.71,2.65 -28.58,7.96 -6.87,5.3 -10.31,12.24 -10.31,20.8 0,8.08 3.2,14.17 9.59,18.26 6.39,4.1 17.9,8.02 34.54,11.76 16.76,3.74 30.33,8.2 40.7,13.39 10.37,5.18 18.02,11.45 22.97,18.81 5.06,7.23 7.59,16.09 7.59,26.58 0,17.49 -6.99,31.54 -20.98,42.15 -13.98,10.49 -32.13,15.73 -54.44,15.73 -15.67,0 -29.54,-2.77 -41.6,-8.32 -12.06,-5.55 -21.52,-13.26 -28.39,-23.15 -6.76,-10.01 -10.13,-20.8 -10.13,-32.38l33.46 0c0.6,11.22 5.06,20.14 13.38,26.77 8.44,6.51 19.54,9.77 33.28,9.77 12.66,0 22.79,-2.53 30.39,-7.6 7.72,-5.18 11.58,-12.05 11.58,-20.62zm160.79 -47.56c0,-30.03 7.11,-54.14 21.34,-72.35 14.23,-18.33 32.86,-27.49 55.88,-27.49 22.91,0 41.06,7.83 54.45,23.51l0 -102.01 33.46 0 0 277.81 -30.75 0 -1.63 -20.98c-13.38,16.4 -32.01,24.6 -55.89,24.6 -22.66,0 -41.17,-9.28 -55.52,-27.85 -14.23,-18.57 -21.34,-42.81 -21.34,-72.71l0 -2.53zm33.46 3.79c0,22.19 4.58,39.55 13.74,52.09 9.16,12.54 21.83,18.82 37.98,18.82 21.23,0 36.72,-9.53 46.49,-28.58l0 -89.89c-10.01,-18.45 -25.38,-27.68 -46.12,-27.68 -16.4,0 -29.19,6.33 -38.35,18.99 -9.16,12.67 -13.74,31.42 -13.74,56.25zm174.89 -3.97c0,-19.18 3.74,-36.42 11.22,-51.73 7.59,-15.32 18.08,-27.13 31.47,-35.45 13.5,-8.32 28.88,-12.48 46.11,-12.48 26.65,0 48.17,9.22 64.57,27.67 16.52,18.45 24.78,42.99 24.78,73.61l0 2.35c0,19.06 -3.68,36.18 -11.03,51.37 -7.24,15.07 -17.67,26.83 -31.29,35.27 -13.51,8.44 -29.06,12.66 -46.67,12.66 -26.52,0 -48.04,-9.22 -64.56,-27.67 -16.4,-18.45 -24.6,-42.87 -24.6,-73.25l0 -2.35zm33.65 3.97c0,21.71 5,39.13 15.01,52.28 10.13,13.14 23.63,19.71 40.5,19.71 17,0 30.51,-6.63 40.52,-19.9 10,-13.38 15.01,-32.07 15.01,-56.06 0,-21.47 -5.13,-38.83 -15.37,-52.09 -10.13,-13.39 -23.64,-20.08 -40.52,-20.08 -16.51,0 -29.83,6.57 -39.96,19.71 -10.13,13.15 -15.19,31.96 -15.19,56.43zm218.11 -100.02l1.09 24.6c14.95,-18.81 34.48,-28.21 58.6,-28.21 41.36,0 62.22,23.33 62.58,69.99l0 129.32 -33.46 0 0 -129.5c-0.12,-14.11 -3.38,-24.54 -9.77,-31.29 -6.27,-6.75 -16.1,-10.13 -29.48,-10.13 -10.85,0 -20.38,2.9 -28.58,8.69 -8.2,5.78 -14.59,13.38 -19.17,22.78l0 139.45 -33.46 0 0 -195.7 31.65 0zm164.59 96.23c0,-30.03 7.12,-54.14 21.34,-72.35 14.23,-18.33 32.86,-27.49 55.89,-27.49 22.91,0 41.06,7.83 54.44,23.51l0 -102.01 33.47 0 0 277.81 -30.75 0 -1.63 -20.98c-13.38,16.4 -32.02,24.6 -55.89,24.6 -22.67,0 -41.18,-9.28 -55.53,-27.85 -14.22,-18.57 -21.34,-42.81 -21.34,-72.71l0 -2.53zm33.46 3.79c0,22.19 4.59,39.55 13.75,52.09 9.16,12.54 21.82,18.82 37.98,18.82 21.22,0 36.72,-9.53 46.48,-28.58l0 -89.89c-10.01,-18.45 -25.38,-27.68 -46.12,-27.68 -16.4,0 -29.18,6.33 -38.34,18.99 -9.16,12.67 -13.75,31.42 -13.75,56.25zm264.98 99.3c-26.54,0 -48.11,-8.68 -64.75,-26.05 -16.64,-17.48 -24.98,-40.81 -24.98,-69.99l0 -6.15c0,-19.41 3.68,-36.72 11.04,-51.91 7.49,-15.31 17.86,-27.25 31.11,-35.81 13.39,-8.68 27.86,-13.02 43.42,-13.02 25.43,0 45.22,8.38 59.32,25.14 14.1,16.76 21.17,40.75 21.17,71.98l0 13.93 -132.59 0c0.48,19.29 6.09,34.91 16.83,46.84 10.85,11.82 24.58,17.73 41.22,17.73 11.83,0 21.83,-2.41 30.03,-7.24 8.21,-4.82 15.38,-11.21 21.54,-19.17l20.43 15.92c-16.41,25.2 -40.99,37.8 -73.79,37.8zm-4.16 -175.44c-13.52,0 -24.84,4.94 -34,14.83 -9.18,9.77 -14.84,23.51 -17.01,41.24l98.03 0 0 -2.53c-0.95,-17.01 -5.56,-30.15 -13.73,-39.43 -8.21,-9.41 -19.32,-14.11 -33.29,-14.11zm247.6 171.82l-33.47 0 0 -277.81 33.47 0 0 277.81zm134.94 3.62c-26.54,0 -48.13,-8.68 -64.77,-26.05 -16.62,-17.48 -24.95,-40.81 -24.95,-69.99l0 -6.15c0,-19.41 3.67,-36.72 11.03,-51.91 7.49,-15.31 17.86,-27.25 31.11,-35.81 13.39,-8.68 27.86,-13.02 43.4,-13.02 25.45,0 45.21,8.38 59.34,25.14 14.1,16.76 21.14,40.75 21.14,71.98l0 13.93 -132.55 0c0.47,19.29 6.08,34.91 16.8,46.84 10.87,11.82 24.6,17.73 41.24,17.73 11.83,0 21.83,-2.41 30.04,-7.24 8.2,-4.82 15.37,-11.21 21.51,-19.17l20.45 15.92c-16.41,25.2 -41.01,37.8 -73.79,37.8zm-4.18 -175.44c-13.5,0 -24.82,4.94 -34,14.83 -9.16,9.77 -14.82,23.51 -16.99,41.24l98.03 0 0 -2.53c-0.98,-17.01 -5.56,-30.15 -13.76,-39.43 -8.2,-9.41 -19.29,-14.11 -33.28,-14.11zm244.73 -0.18c14.82,-18.21 34.11,-27.31 57.87,-27.31 41.35,0 62.23,23.33 62.57,69.99l0 129.32 -33.44 0 0 -129.5c-0.13,-14.11 -3.39,-24.54 -9.79,-31.29 -6.27,-6.75 -16.09,-10.13 -29.47,-10.13 -10.85,0 -20.38,2.9 -28.58,8.69 -8.2,5.78 -14.58,13.38 -19.16,22.78l0 139.45 -33.46 0 0 -277.81 33.46 0 0 105.81zm291.36 172c-1.93,-3.85 -3.49,-10.73 -4.71,-20.62 -15.53,16.16 -34.1,24.24 -55.69,24.24 -19.29,0 -35.14,-5.43 -47.57,-16.28 -12.31,-10.97 -18.44,-24.84 -18.44,-41.6 0,-20.37 7.72,-36.17 23.15,-47.38 15.55,-11.34 37.38,-17.01 65.46,-17.01l32.57 0 0 -15.37c0,-11.7 -3.5,-20.98 -10.51,-27.85 -6.98,-7 -17.28,-10.49 -30.9,-10.49 -11.96,0 -21.96,3.01 -30.03,9.04 -8.1,6.03 -12.12,13.32 -12.12,21.89l-33.66 0c0,-9.77 3.44,-19.18 10.32,-28.22 6.99,-9.16 16.41,-16.4 28.21,-21.7 11.93,-5.31 25.03,-7.96 39.26,-7.96 22.54,0 40.22,5.66 53,17 12.78,11.21 19.39,26.71 19.9,46.48l0 90.07c0,17.97 2.27,32.26 6.85,42.87l0 2.89 -35.09 0zm-55.51 -25.5c10.48,0 20.43,-2.71 29.82,-8.14 9.42,-5.42 16.22,-12.48 20.46,-21.16l0 -40.15 -26.22 0c-41.02,0 -61.49,12 -61.49,35.99 0,10.49 3.49,18.69 10.47,24.6 6.99,5.91 15.98,8.86 26.96,8.86zm230.77 -140.17c-5.05,-0.85 -10.55,-1.27 -16.45,-1.27 -21.94,0 -36.83,9.35 -44.66,28.04l0 138.9 -33.47 0 0 -195.7 32.54 0 0.55 22.61c10.99,-17.48 26.54,-26.22 46.68,-26.22 6.51,0 11.45,0.84 14.81,2.53l0 31.11zm144.52 165.67c-1.93,-3.85 -3.49,-10.73 -4.71,-20.62 -15.53,16.16 -34.1,24.24 -55.69,24.24 -19.29,0 -35.17,-5.43 -47.58,-16.28 -12.3,-10.97 -18.44,-24.84 -18.44,-41.6 0,-20.37 7.7,-36.17 23.15,-47.38 15.56,-11.34 37.39,-17.01 65.46,-17.01l32.57 0 0 -15.37c0,-11.7 -3.49,-20.98 -10.5,-27.85 -6.99,-7 -17.31,-10.49 -30.93,-10.49 -11.94,0 -21.94,3.01 -30.01,9.04 -8.09,6.03 -12.11,13.32 -12.11,21.89l-33.66 0c0,-9.77 3.44,-19.18 10.32,-28.22 6.98,-9.16 16.4,-16.4 28.2,-21.7 11.94,-5.31 25.03,-7.96 39.27,-7.96 22.54,0 40.21,5.66 52.99,17 12.78,11.21 19.4,26.71 19.9,46.48l0 90.07c0,17.97 2.28,32.26 6.85,42.87l0 2.89 -35.08 0zm-55.51 -25.5c10.48,0 20.43,-2.71 29.82,-8.14 9.42,-5.42 16.22,-12.48 20.45,-21.16l0 -40.15 -26.22 0c-41.01,0 -61.52,12 -61.52,35.99 0,10.49 3.52,18.69 10.51,24.6 6.98,5.91 15.98,8.86 26.96,8.86zm250.14 -26.41c0,-9.04 -3.44,-16.03 -10.32,-20.98 -6.75,-5.06 -18.63,-9.4 -35.64,-13.02 -16.88,-3.62 -30.32,-7.96 -40.32,-13.02 -9.9,-5.07 -17.25,-11.09 -22.07,-18.09 -4.71,-6.99 -7.06,-15.31 -7.06,-24.96 0,-16.03 6.74,-29.6 20.26,-40.69 13.63,-11.1 30.99,-16.64 52.1,-16.64 22.17,0 40.14,5.72 53.89,17.18 13.87,11.45 20.8,26.1 20.8,43.95l-33.65 0c0,-9.16 -3.92,-17.06 -11.75,-23.69 -7.73,-6.64 -17.49,-9.95 -29.29,-9.95 -12.2,0 -21.72,2.65 -28.58,7.96 -6.87,5.3 -10.31,12.24 -10.31,20.8 0,8.08 3.2,14.17 9.57,18.26 6.41,4.1 17.92,8.02 34.56,11.76 16.75,3.74 30.32,8.2 40.69,13.39 10.37,5.18 18.02,11.45 22.97,18.81 5.08,7.23 7.59,16.09 7.59,26.58 0,17.49 -6.98,31.54 -20.98,42.15 -13.97,10.49 -32.12,15.73 -54.43,15.73 -15.69,0 -29.55,-2.77 -41.61,-8.32 -12.04,-5.55 -21.52,-13.26 -28.39,-23.15 -6.75,-10.01 -10.14,-20.8 -10.14,-32.38l33.47 0c0.61,11.22 5.06,20.14 13.39,26.77 8.44,6.51 19.53,9.77 33.28,9.77 12.65,0 22.78,-2.53 30.38,-7.6 7.72,-5.18 11.59,-12.05 11.59,-20.62zm-4093.4 635c0,-9.04 -3.43,-16.03 -10.31,-20.98 -6.75,-5.06 -18.63,-9.4 -35.63,-13.02 -16.88,-3.62 -30.32,-7.96 -40.33,-13.02 -9.89,-5.07 -17.24,-11.09 -22.07,-18.09 -4.7,-6.99 -7.05,-15.31 -7.05,-24.96 0,-16.03 6.75,-29.6 20.26,-40.69 13.62,-11.1 30.99,-16.64 52.09,-16.64 22.18,0 40.15,5.73 53.9,17.18 13.86,11.46 20.79,26.11 20.79,43.95l-33.64 0c0,-9.16 -3.92,-17.06 -11.75,-23.69 -7.72,-6.63 -17.49,-9.95 -29.3,-9.95 -12.18,0 -21.71,2.65 -28.58,7.96 -6.87,5.3 -10.31,12.24 -10.31,20.8 0,8.08 3.2,14.17 9.59,18.26 6.39,4.11 17.9,8.02 34.54,11.76 16.76,3.74 30.33,8.2 40.7,13.39 10.37,5.18 18.02,11.45 22.97,18.8 5.06,7.24 7.59,16.1 7.59,26.59 0,17.49 -6.99,31.54 -20.98,42.15 -13.98,10.49 -32.13,15.73 -54.44,15.73 -15.67,0 -29.54,-2.77 -41.6,-8.32 -12.06,-5.55 -21.52,-13.26 -28.39,-23.15 -6.76,-10.01 -10.13,-20.8 -10.13,-32.38l33.46 0c0.6,11.22 5.06,20.14 13.38,26.77 8.44,6.51 19.54,9.77 33.28,9.77 12.66,0 22.79,-2.53 30.39,-7.6 7.71,-5.18 11.57,-12.05 11.57,-20.62zm158.26 55.53c-26.53,0 -48.11,-8.68 -64.75,-26.05 -16.64,-17.48 -24.96,-40.81 -24.96,-69.99l0 -6.15c0,-19.41 3.68,-36.72 11.03,-51.91 7.48,-15.31 17.85,-27.25 31.11,-35.81 13.39,-8.68 27.86,-13.02 43.41,-13.02 25.44,0 45.22,8.38 59.33,25.14 14.1,16.76 21.16,40.75 21.16,71.98l0 13.93 -132.58 0c0.48,19.29 6.09,34.91 16.82,46.85 10.85,11.81 24.6,17.72 41.24,17.72 11.82,0 21.82,-2.41 30.02,-7.23 8.2,-4.83 15.38,-11.22 21.53,-19.18l20.44 15.92c-16.4,25.2 -41,37.8 -73.8,37.8zm-4.16 -175.44c-13.5,0 -24.84,4.94 -34,14.83 -9.16,9.77 -14.83,23.51 -17,41.24l98.03 0 0 -2.53c-0.97,-17.01 -5.55,-30.15 -13.75,-39.43 -8.2,-9.41 -19.29,-14.11 -33.28,-14.11zm111.42 72.35c0,-30.51 7.05,-54.75 21.16,-72.71 14.1,-18.09 32.79,-27.13 56.07,-27.13 23.87,0 42.5,8.44 55.89,25.32l1.62 -21.71 30.57 0 0 191c0,25.32 -7.54,45.28 -22.61,59.87 -14.95,14.59 -35.09,21.88 -60.41,21.88 -14.11,0 -27.91,-3.01 -41.42,-9.04 -13.5,-6.03 -23.81,-14.29 -30.93,-24.78l17.37 -20.08c14.35,17.73 31.89,26.59 52.63,26.59 16.28,0 28.94,-4.58 37.98,-13.74 9.17,-9.17 13.75,-22.07 13.75,-38.71l0 -16.82c-13.39,15.43 -31.65,23.15 -54.8,23.15 -22.92,0 -41.48,-9.22 -55.71,-27.67 -14.11,-18.45 -21.16,-43.59 -21.16,-75.42zm33.64 3.79c0,22.07 4.52,39.43 13.56,52.09 9.05,12.54 21.71,18.82 37.99,18.82 21.1,0 36.59,-9.59 46.48,-28.76l0 -89.35c-10.25,-18.69 -25.62,-28.04 -46.12,-28.04 -16.28,0 -29,6.33 -38.17,18.99 -9.16,12.66 -13.74,31.42 -13.74,56.25zm303.13 76.33c-13.02,15.31 -32.13,22.97 -57.33,22.97 -20.86,0 -36.78,-6.03 -47.75,-18.09 -10.85,-12.18 -16.34,-30.14 -16.46,-53.9l0 -127.33 33.46 0 0 126.43c0,29.66 12.06,44.5 36.17,44.5 25.57,0 42.57,-9.53 51.01,-28.58l0 -142.35 33.46 0 0 195.7 -31.83 0 -0.73 -19.35zm119.92 19.35l-33.46 0 0 -195.7 33.46 0 0 195.7zm-36.18 -247.6c0,-5.43 1.63,-10.01 4.89,-13.75 3.37,-3.74 8.32,-5.61 14.83,-5.61 6.51,0 11.45,1.87 14.83,5.61 3.38,3.74 5.06,8.32 5.06,13.75 0,5.42 -1.68,9.94 -5.06,13.56 -3.38,3.62 -8.32,5.43 -14.83,5.43 -6.51,0 -11.46,-1.81 -14.83,-5.43 -3.26,-3.62 -4.89,-8.14 -4.89,-13.56zm121.37 51.9l0.9 21.71c14.35,-16.88 33.7,-25.32 58.06,-25.32 27.37,0 46,10.49 55.89,31.47 6.51,-9.41 14.95,-17 25.32,-22.79 10.49,-5.79 22.85,-8.68 37.08,-8.68 42.92,0 64.75,22.73 65.47,68.18l0 131.13 -33.46 0 0 -129.14c0,-13.98 -3.2,-24.41 -9.59,-31.29 -6.39,-6.99 -17.12,-10.49 -32.19,-10.49 -12.42,0 -22.73,3.74 -30.93,11.22 -8.2,7.35 -12.96,17.3 -14.29,29.84l0 129.86 -33.64 0 0 -128.23c0,-28.46 -13.93,-42.69 -41.78,-42.69 -21.94,0 -36.96,9.35 -45.03,28.04l0 142.88 -33.47 0 0 -195.7 31.66 0zm329.72 195.7l-33.46 0 0 -195.7 33.46 0 0 195.7zm-36.18 -247.6c0,-5.43 1.63,-10.01 4.89,-13.75 3.37,-3.74 8.32,-5.61 14.83,-5.61 6.51,0 11.45,1.87 14.83,5.61 3.38,3.74 5.06,8.32 5.06,13.75 0,5.42 -1.68,9.94 -5.06,13.56 -3.38,3.62 -8.32,5.43 -14.83,5.43 -6.51,0 -11.46,-1.81 -14.83,-5.43 -3.26,-3.62 -4.89,-8.14 -4.89,-13.56zm171.1 251.22c-26.52,0 -48.11,-8.68 -64.75,-26.05 -16.64,-17.48 -24.96,-40.81 -24.96,-69.99l0 -6.15c0,-19.41 3.68,-36.72 11.04,-51.91 7.47,-15.31 17.84,-27.25 31.11,-35.81 13.38,-8.68 27.85,-13.02 43.4,-13.02 25.45,0 45.22,8.38 59.33,25.14 14.11,16.76 21.16,40.75 21.16,71.98l0 13.93 -132.58 0c0.49,19.29 6.09,34.91 16.83,46.85 10.85,11.81 24.59,17.72 41.23,17.72 11.82,0 21.83,-2.41 30.03,-7.23 8.2,-4.83 15.37,-11.22 21.52,-19.18l20.44 15.92c-16.4,25.2 -41,37.8 -73.8,37.8zm-4.16 -175.44c-13.5,0 -24.83,4.94 -34,14.83 -9.16,9.77 -14.83,23.51 -17,41.24l98.03 0 0 -2.53c-0.96,-17.01 -5.55,-30.15 -13.75,-39.43 -8.2,-9.41 -19.29,-14.11 -33.28,-14.11zm151.03 -23.88l1.08 24.6c14.95,-18.81 34.49,-28.21 58.61,-28.21 41.35,0 62.21,23.33 62.58,69.99l0 129.32 -33.47 0 0 -129.5c-0.12,-14.1 -3.37,-24.53 -9.76,-31.29 -6.27,-6.75 -16.1,-10.13 -29.48,-10.13 -10.86,0 -20.38,2.9 -28.58,8.69 -8.2,5.78 -14.59,13.38 -19.17,22.78l0 139.45 -33.46 0 0 -195.7 31.65 0zm218.12 -47.38l0 47.38 36.54 0 0 25.87 -36.54 0 0 121.36c0,7.84 1.63,13.75 4.89,17.73 3.25,3.85 8.8,5.78 16.64,5.78 3.86,0 9.16,-0.72 15.91,-2.17l0 27.13c-8.8,2.41 -17.36,3.62 -25.68,3.62 -14.95,0 -26.22,-4.52 -33.82,-13.56 -7.6,-9.05 -11.4,-21.89 -11.4,-38.53l0 -121.36 -35.63 0 0 -25.87 35.63 0 0 -47.38 33.46 0zm63.31 143.43c0,-19.18 3.74,-36.42 11.21,-51.73 7.6,-15.32 18.09,-27.13 31.47,-35.45 13.51,-8.32 28.88,-12.48 46.13,-12.48 26.64,0 48.17,9.22 64.56,27.67 16.52,18.45 24.78,42.99 24.78,73.61l0 2.35c0,19.05 -3.68,36.18 -11.03,51.37 -7.23,15.07 -17.66,26.83 -31.29,35.27 -13.5,8.44 -29.06,12.66 -46.66,12.66 -26.53,0 -48.05,-9.22 -64.57,-27.67 -16.4,-18.45 -24.6,-42.87 -24.6,-73.25l0 -2.35zm33.64 3.97c0,21.71 5,39.13 15.01,52.28 10.13,13.14 23.63,19.71 40.52,19.71 17,0 30.5,-6.63 40.51,-19.9 10.01,-13.38 15.01,-32.07 15.01,-56.06 0,-21.47 -5.12,-38.83 -15.37,-52.1 -10.13,-13.38 -23.63,-20.07 -40.51,-20.07 -16.53,0 -29.85,6.57 -39.98,19.71 -10.13,13.15 -15.19,31.96 -15.19,56.43zm399.16 95.68c-1.92,-3.85 -3.49,-10.73 -4.7,-20.62 -15.55,16.16 -34.12,24.24 -55.71,24.24 -19.29,0 -35.14,-5.43 -47.55,-16.28 -12.3,-10.97 -18.45,-24.84 -18.45,-41.6 0,-20.38 7.72,-36.17 23.14,-47.38 15.55,-11.34 37.38,-17.01 65.47,-17.01l32.56 0 0 -15.37c0,-11.7 -3.5,-20.98 -10.49,-27.85 -6.99,-7 -17.3,-10.49 -30.93,-10.49 -11.94,0 -21.95,3.01 -30.02,9.04 -8.08,6.03 -12.12,13.32 -12.12,21.89l-33.63 0c0,-9.77 3.43,-19.18 10.31,-28.22 6.99,-9.17 16.38,-16.4 28.2,-21.7 11.94,-5.31 25.02,-7.96 39.25,-7.96 22.55,0 40.21,5.66 53,17 12.77,11.21 19.41,26.71 19.89,46.48l0 90.07c0,17.97 2.29,32.26 6.87,42.87l0 2.89 -35.09 0zm-55.52 -25.5c10.49,0 20.43,-2.71 29.84,-8.14 9.41,-5.43 16.22,-12.48 20.44,-21.16l0 -40.15 -26.23 0c-40.99,0 -61.49,12 -61.49,35.99 0,10.49 3.5,18.69 10.49,24.6 6.99,5.91 15.98,8.86 26.95,8.86zm273.47 -217.58l0 47.38 36.54 0 0 25.87 -36.54 0 0 121.36c0,7.84 1.63,13.75 4.88,17.73 3.26,3.85 8.81,5.78 16.64,5.78 3.86,0 9.17,-0.72 15.92,-2.17l0 27.13c-8.8,2.41 -17.36,3.62 -25.68,3.62 -14.95,0 -26.23,-4.52 -33.83,-13.56 -7.59,-9.05 -11.39,-21.89 -11.39,-38.53l0 -121.36 -35.63 0 0 -25.87 35.63 0 0 -47.38 33.46 0zm196.61 223.73c-13.04,15.31 -32.15,22.97 -57.34,22.97 -20.86,0 -36.78,-6.03 -47.75,-18.09 -10.85,-12.18 -16.34,-30.14 -16.46,-53.9l0 -127.33 33.46 0 0 126.43c0,29.66 12.06,44.5 36.17,44.5 25.57,0 42.55,-9.53 51.02,-28.58l0 -142.35 33.44 0 0 195.7 -31.82 0 -0.72 -19.35zm289.38 -32.56c0,-9.04 -3.44,-16.03 -10.3,-20.98 -6.77,-5.06 -18.65,-9.4 -35.64,-13.02 -16.88,-3.62 -30.32,-7.96 -40.34,-13.02 -9.87,-5.07 -17.23,-11.09 -22.07,-18.09 -4.68,-6.99 -7.04,-15.31 -7.04,-24.96 0,-16.03 6.75,-29.6 20.24,-40.69 13.63,-11.1 31.01,-16.64 52.1,-16.64 22.2,0 40.16,5.73 53.89,17.18 13.87,11.46 20.8,26.11 20.8,43.95l-33.63 0c0,-9.16 -3.91,-17.06 -11.75,-23.69 -7.72,-6.63 -17.48,-9.95 -29.31,-9.95 -12.17,0 -21.7,2.65 -28.58,7.96 -6.88,5.3 -10.29,12.24 -10.29,20.8 0,8.08 3.18,14.17 9.58,18.26 6.38,4.11 17.91,8.02 34.53,11.76 16.77,3.74 30.34,8.2 40.72,13.39 10.34,5.18 18.01,11.45 22.96,18.8 5.06,7.24 7.6,16.1 7.6,26.59 0,17.49 -6.99,31.54 -20.99,42.15 -13.99,10.49 -32.14,15.73 -54.45,15.73 -15.66,0 -29.52,-2.77 -41.59,-8.32 -12.06,-5.55 -21.51,-13.26 -28.39,-23.15 -6.75,-10.01 -10.13,-20.8 -10.13,-32.38l33.47 0c0.58,11.22 5.05,20.14 13.36,26.77 8.44,6.51 19.55,9.77 33.28,9.77 12.68,0 22.81,-2.53 30.4,-7.6 7.7,-5.18 11.57,-12.05 11.57,-20.62zm158.27 55.53c-26.54,0 -48.13,-8.68 -64.77,-26.05 -16.64,-17.48 -24.95,-40.81 -24.95,-69.99l0 -6.15c0,-19.41 3.68,-36.72 11.03,-51.91 7.49,-15.31 17.84,-27.25 31.12,-35.81 13.39,-8.68 27.86,-13.02 43.39,-13.02 25.45,0 45.22,8.38 59.35,25.14 14.1,16.76 21.14,40.75 21.14,71.98l0 13.93 -132.56 0c0.48,19.29 6.08,34.91 16.8,46.85 10.87,11.81 24.61,17.72 41.25,17.72 11.83,0 21.83,-2.41 30.03,-7.23 8.2,-4.83 15.37,-11.22 21.51,-19.18l20.45 15.92c-16.4,25.2 -41.01,37.8 -73.79,37.8zm-4.18 -175.44c-13.49,0 -24.82,4.94 -34,14.83 -9.15,9.77 -14.82,23.51 -16.99,41.24l98.03 0 0 -2.53c-0.98,-17.01 -5.55,-30.15 -13.76,-39.43 -8.2,-9.41 -19.28,-14.11 -33.28,-14.11zm111.42 72.35c0,-30.51 7.06,-54.75 21.16,-72.71 14.1,-18.09 32.81,-27.13 56.07,-27.13 23.89,0 42.52,8.44 55.9,25.32l1.62 -21.71 30.56 0 0 191c0,25.32 -7.52,45.28 -22.6,59.87 -14.95,14.59 -35.08,21.88 -60.4,21.88 -14.13,0 -27.92,-3.01 -41.44,-9.04 -13.49,-6.03 -23.81,-14.29 -30.93,-24.78l17.39 -20.08c14.34,17.73 31.88,26.59 52.62,26.59 16.27,0 28.95,-4.58 37.97,-13.74 9.18,-9.17 13.76,-22.07 13.76,-38.71l0 -16.82c-13.39,15.43 -31.65,23.15 -54.8,23.15 -22.91,0 -41.48,-9.22 -55.72,-27.67 -14.1,-18.45 -21.16,-43.59 -21.16,-75.42zm33.65 3.79c0,22.07 4.52,39.43 13.57,52.09 9.03,12.54 21.7,18.82 37.97,18.82 21.11,0 36.59,-9.59 46.49,-28.76l0 -89.35c-10.24,-18.69 -25.64,-28.04 -46.12,-28.04 -16.27,0 -29,6.33 -38.18,18.99 -9.15,12.66 -13.73,31.42 -13.73,56.25zm303.13 76.33c-13.01,15.31 -32.14,22.97 -57.33,22.97 -20.88,0 -36.78,-6.03 -47.76,-18.09 -10.85,-12.18 -16.32,-30.14 -16.46,-53.9l0 -127.33 33.47 0 0 126.43c0,29.66 12.04,44.5 36.17,44.5 25.56,0 42.57,-9.53 51.01,-28.58l0 -142.35 33.45 0 0 195.7 -31.83 0 -0.72 -19.35zm178.15 -146.32c-5.06,-0.84 -10.56,-1.27 -16.46,-1.27 -21.93,0 -36.83,9.35 -44.66,28.04l0 138.9 -33.47 0 0 -195.7 32.57 0 0.53 22.61c10.98,-17.48 26.54,-26.22 46.67,-26.22 6.51,0 11.46,0.84 14.82,2.53l0 31.11zm18.47 66.02c0,-19.18 3.73,-36.42 11.19,-51.73 7.59,-15.32 18.09,-27.13 31.48,-35.45 13.5,-8.32 28.87,-12.48 46.12,-12.48 26.64,0 48.18,9.22 64.56,27.67 16.53,18.45 24.79,42.99 24.79,73.61l0 2.35c0,19.05 -3.68,36.18 -11.03,51.37 -7.25,15.07 -17.68,26.83 -31.3,35.27 -13.5,8.44 -29.06,12.66 -46.65,12.66 -26.54,0 -48.05,-9.22 -64.58,-27.67 -16.41,-18.45 -24.58,-42.87 -24.58,-73.25l0 -2.35zm33.62 3.97c0,21.71 5,39.13 15.01,52.28 10.13,13.14 23.65,19.71 40.53,19.71 16.99,0 30.51,-6.63 40.51,-19.9 10,-13.38 15,-32.07 15,-56.06 0,-21.47 -5.11,-38.83 -15.37,-52.1 -10.14,-13.38 -23.63,-20.07 -40.51,-20.07 -16.51,0 -29.85,6.57 -39.98,19.71 -10.13,13.15 -15.19,31.96 -15.19,56.43z"/>
  <g id="_3173845120688">
   <path class="fil4" d="M-4695.75 6063.7c-462.09,54.87 -961.52,94.06 -1406.26,94.06 -1276.59,0 -1567.17,-226.27 -1567.17,-314.86 0,-84.9 1709.35,-294.55 2973.43,-318.87l0 539.67z"/>
   <path class="fil5" d="M-6254.48 4349.35c3.18,-20.56 -28.58,-34.8 -28.58,-34.8 -9.53,-28.49 -26.99,-123.42 -112.74,-131.31 -85.74,-7.93 -127.02,-25.33 -150.83,80.68 0,0 -19.06,79.12 68.27,94.94 87.33,17.4 174.66,9.5 184.18,12.66 9.53,4.74 33.34,11.08 39.7,-22.17z"/>
   <path class="fil6" d="M-7334.18 5767.04c68.28,28.46 198.47,66.46 274.69,74.35l211.18 -778.46c-68.28,-55.36 -250.87,-60.13 -333.44,-52.21l-152.43 756.32z"/>
   <path class="fil6" d="M-7505.69 5464.79c-14.29,-224.66 122.27,-427.19 296.92,-452.51 165.13,-23.75 303.27,123.42 317.56,327.52 12.7,204.11 -103.2,401.89 -266.75,446.21 -174.66,45.88 -333.44,-96.52 -347.73,-321.22z"/>
   <path class="fil6" d="M-7310.51 5502.91c-14.29,-232.59 127.03,-443.02 308.03,-468.34 171.49,-23.72 315.98,128.15 328.68,338.61 14.29,210.42 -106.38,417.71 -277.86,462.02 -177.84,49.05 -342.97,-99.7 -358.85,-332.29z"/>
   <path class="fil6" d="M-7140.58 5468.16c-11.11,-145.56 65.1,-276.87 166.72,-292.7 98.45,-15.82 184.19,82.27 195.31,218.35 11.11,136.05 -57.17,265.82 -155.61,291.12 -101.62,25.32 -195.3,-71.19 -206.42,-216.77z"/>
   <path class="fil7" d="M-5389.12 5765.52l155.6 34.8c0,0 50.8,4.76 46.03,-41.12 -4.76,-45.89 -26.98,-356.01 -26.98,-356.01l-50.82 -439.86c0,0 -292.14,-72.79 -411.23,-17.42 -119.08,55.38 -301.68,151.9 -309.61,226.27 -7.95,74.37 130.19,169.3 130.19,169.3l466.82 424.04z"/>
   <path class="fil8" d="M-4695.75 3748.55c-89.04,-5.17 -436.75,-24.21 -566.42,-14.58 -149.24,11.09 -160.36,15.83 -236.57,63.3l138.14 -6.32 96.84 -12.67c0,0 46.06,-45.88 336.62,-18.98 1.3,-1.32 170.98,4.83 231.39,-2.48l0 -8.27z"/>
   <path class="fil6" d="M-5555.88 5455.32l63.52 -234.17c-79.4,-64.87 -290.58,-71.19 -387.43,-60.13 -9.53,0 -20.64,1.58 -31.76,3.15 -203.24,28.49 -362.01,264.24 -344.56,525.32 11.12,167.73 90.51,294.3 200.07,351.27l1.59 0c19.05,9.48 39.69,17.4 60.34,22.14 82.56,28.49 188.95,56.97 257.22,63.29l42.86 -159.8c101.63,-101.25 161.97,-261.08 152.44,-424.04 -3.17,-30.06 -6.36,-60.13 -14.29,-87.03z"/>
   <path class="fil9" d="M-4695.75 3750.03c-117.32,5.63 -351.15,21.83 -429.87,21.83 -95.29,0 -446.18,33.25 -446.18,33.25 -152.43,15.82 -249.28,42.71 -249.28,42.71 -200.06,44.3 -590.67,395.57 -636.71,441.46 -44.46,45.88 -112.73,91.77 -292.15,121.83 -179.43,31.65 -576.38,123.39 -697.05,166.12 -117.49,42.73 -192.12,289.56 -192.12,289.56 -28.59,18.99 -109.56,110.76 -120.68,153.48 -11.11,42.71 39.69,83.86 52.4,94.94 12.7,9.47 1678.31,264.23 1678.31,264.23 173.06,-351.27 333.43,-316.46 566.84,-327.52 233.4,-11.08 247.69,352.83 247.69,352.83l33.34 71.21 485.46 -61.81 0 -1664.12z"/>
   <path class="fil10 str0" d="M-5300.25 4382.65c0,0 98.45,44.29 144.48,110.76"/>
   <path class="fil7" d="M-7556.48 4673.75c0,0 41.28,64.89 190.53,94.95 168.31,34.81 503.33,33.22 747.86,9.48l-179.42 186.7c0,0 -384.25,44.32 -527.16,33.23 -142.89,-11.06 -241.34,-115.5 -296.91,-161.38l65.1 -162.98z"/>
   <path class="fil6" d="M-7561.33 4819.23c0,0 1.59,26.9 23.82,52.23 20.64,25.3 134.96,96.51 220.7,102.83 85.74,6.34 347.73,-11.06 420.77,-20.56 19.05,-1.59 60.33,-53.78 60.33,-53.78 0,0 -385.83,41.12 -473.16,31.64 -87.33,-9.51 -252.46,-112.36 -252.46,-112.36z"/>
   <path class="fil6" d="M-7553.33 4737.01c0,0 1.59,26.9 23.83,52.21 22.22,25.32 144.48,85.45 230.22,93.34 87.33,7.93 384.26,-12.66 487.46,-18.98 15.87,-1.57 53.98,-37.96 53.98,-37.96 0,0 -455.69,34.81 -544.61,25.3 -87.33,-9.48 -250.88,-113.91 -250.88,-113.91z"/>
   <path class="fil10 str1" d="M-7608.93 4776.62c0,0 131.79,126.59 298.5,155.06 123.85,20.57 566.85,-47.46 566.85,-47.46"/>
   <path class="fil10 str1" d="M-7580.37 4724.39c0,0 106.38,88.62 274.69,117.1 123.85,20.57 646.23,-28.48 646.23,-28.48"/>
   <path class="fil11" d="M-7254.86 4875.92c6.31,-38.82 -18.05,-75.02 -54.41,-80.89 -36.35,-5.87 -70.93,20.84 -77.24,59.65 -6.31,38.82 18.05,75.05 54.4,80.89 36.37,5.88 70.95,-20.83 77.25,-59.65z"/>
   <path class="fil10 str0" d="M-5392.31 4428.46c0,0 -28.58,42.74 -79.38,52.21 -50.81,9.5 -616.08,112.36 -708.16,185.13"/>
   <path class="fil10 str0" d="M-5928.96 5192.69c0,0 -95.27,-91.78 -122.26,-109.18 -65.1,-41.14 -247.7,-125 -317.56,-121.83"/>
   <path class="fil8" d="M-6063.96 4676.88c0,0 28.58,22.16 -1.58,28.48 -30.17,6.32 -160.37,44.31 -208,134.5 -17.47,31.64 -30.17,58.53 -39.7,79.12 -15.88,33.22 -47.63,56.94 -84.16,61.7 -68.27,11.06 -196.88,28.49 -390.59,42.73 -22.24,1.57 -38.11,-20.58 -30.17,-41.15 30.17,-68.02 98.44,-193.04 206.41,-237.33 150.85,-63.29 490.63,-102.85 523.97,-83.87 1.6,-3.17 20.65,9.5 23.82,15.82z"/>
   <path class="fil8" d="M-7650.18 4876.27c0,1.6 0,4.77 0,6.34 4.76,30.07 52.39,28.49 57.16,-1.57 42.87,-229.44 147.66,-302.22 147.66,-302.22 -149.25,39.56 -204.82,256.33 -204.82,297.45z"/>
   <path class="fil12" d="M-6183.07 5018.64c3.19,-11.07 11.12,-20.58 17.48,-30.06 7.93,-9.5 15.87,-17.42 23.81,-25.33 15.88,-15.82 34.93,-30.06 53.99,-44.3 38.1,-26.91 80.98,-47.46 125.43,-63.29 87.33,-33.23 181.01,-44.31 271.52,-63.29 46.04,-7.92 92.09,-17.4 138.14,-23.75 46.04,-6.31 92.08,-12.63 139.73,-11.05 46.03,1.58 95.25,14.24 130.18,45.89 36.53,30.06 58.75,74.34 71.46,118.65 -17.48,-42.7 -39.69,-85.43 -74.63,-113.91 -34.94,-30.07 -82.56,-41.15 -128.61,-42.73 -46.05,-1.59 -92.09,3.15 -138.13,11.08 -46.05,7.9 -92.09,15.82 -136.56,25.33l-68.27 12.63c-22.23,3.18 -46.05,7.92 -68.27,12.66 -46.05,7.93 -90.51,20.59 -133.38,36.41 -87.33,28.46 -168.31,79.12 -223.89,155.06z"/>
   <path class="fil12" d="M-5684.46 4425.31l-495.39 117.07c0,0 469.99,-94.93 493.8,-96.52 23.82,-1.57 42.87,-17.4 42.87,-17.4l-41.28 -3.15z"/>
   <path class="fil12" d="M-6440.32 4390.53l-425.54 101.25c0,0 404.9,-80.69 423.95,-82.27 20.64,-1.58 36.52,-15.83 36.52,-15.83l-34.93 -3.15z"/>
   <path class="fil7" d="M-4733.39 3809.78c0,0 -127.02,12.63 -214.36,123.42 -87.33,112.33 -298.51,420.87 -298.51,420.87 0,0 -47.63,75.95 -166.71,75.95 -103.2,0 -776.43,-44.31 -782.78,-44.31 -6.36,0 -341.38,-15.82 -341.38,-15.82 0,0 -30.16,0 12.7,-15.82 0,0 49.22,-25.32 73.04,-49.07 22.23,-23.72 438.24,-393.97 608.13,-452.52l25.41 -4.74c-74.63,26.91 -96.86,53.81 -96.86,53.81 0,0 527.15,-31.67 814.53,-7.93l123.85 7.93c0,0 14.29,3.16 17.47,-4.76 1.59,0 95.27,-77.54 225.47,-87.01z"/>
   <path class="fil10 str0" d="M-5154.16 4513.89c0,0 22.22,66.48 23.82,166.15 1.58,101.27 -15.9,376.57 -15.9,376.57 0,0 36.54,79.1 27,158.25 -9.52,79.1 -12.7,221.5 -12.7,221.5"/>
   <path class="fil7" d="M-5143.08 4439.57c0,0 -22.24,37.99 -22.24,63.29 0,30.07 25.43,52.24 55.59,49.07l413.98 -48.23 0 -639.48c-107.47,27.97 -198.46,93.4 -277.44,239.93l-169.89 335.42z"/>
   <line class="fil10 str0" x1="-5130.34" y1="5379.42" x2="-4695.75" y2= "5322.18" />
   <path class="fil7" d="M-5174.83 5643.56c0,0 47.65,0 92.11,-4.75 16.3,-1.74 182.75,-26.03 386.97,-56.1l0 -207c-219.82,29.37 -393.34,52.65 -393.34,52.65l-55.57 4.77c0,1.57 -30.17,199.37 -30.17,210.43z"/>
   <path class="fil13" d="M-4987.44 3923.79c0,0 -565.25,-52.23 -941.56,-6.34 0,0 -22.23,3.15 -39.7,17.39 -15.88,15.83 -222.29,139.25 -489.04,405.09 0,0 -12.7,12.63 36.52,15.82 49.22,3.16 982.85,49.04 982.85,49.04 0,0 104.78,9.49 158.77,-63.29 46.05,-61.7 296.92,-390.83 296.92,-390.83 0,0 15.87,-18.98 -4.76,-26.88z"/>
   <path class="fil14" style="mask:url(#id0)" d="M-5616.17 3900.07c-92.09,1.58 -184.18,4.74 -268.34,14.24 -163.54,123.42 -382.66,291.12 -565.25,436.7 4.76,1.58 14.29,4.74 30.16,4.74 17.47,1.58 146.08,7.92 304.86,15.83 96.85,-101.28 281.04,-287.99 419.19,-406.64 26.99,-22.17 52.38,-44.31 79.38,-64.87z"/>
   <path class="fil15" d="M-4695.75 4459.84l-291.69 30.33 -39.7 -156.67c0,0 -11.12,-25.29 7.93,-56.93 22.24,-36.41 111.15,-204.11 111.15,-204.11 0,0 41.16,-95.94 212.31,-149.1l0 536.48z"/>
   <path class="fil16" d="M-5069.98 4452.21c0,-26.9 42.84,-37.96 42.84,-37.96 17.49,-34.83 60.36,-150.33 169.92,-142.42 86.33,6.15 138.17,-0.09 161.47,62.05l0 129.83c-13.39,24.18 -40.1,47.16 -93.2,48.63 -114.31,3.16 -222.29,-23.74 -235,-20.56 -12.71,0 -46.03,3.16 -46.03,-39.57z"/>
   <path class="fil17" d="M-6028.9 5732.22c-17.48,-270.55 147.66,-514.24 358.83,-544.3 200.06,-28.48 366.77,148.74 382.66,393.97 15.87,245.26 -123.84,484.19 -322.32,537.98 -209.59,55.39 -400.13,-117.09 -419.17,-387.65z"/>
   <path class="fil9" d="M-5832.05 5692.6c-12.71,-169.3 74.62,-321.18 193.71,-340.18 114.32,-18.99 214.35,94.96 227.05,254.75 12.71,158.23 -66.68,308.54 -181,337.03 -117.5,28.46 -225.47,-83.87 -239.76,-251.6z"/>
   <path class="fil18" d="M-5795.44 5684.8c-11.11,-140.82 61.92,-268.97 161.95,-284.79 96.86,-15.83 181.01,79.1 190.54,212 11.12,132.92 -57.16,259.5 -152.43,283.24 -98.45,23.72 -188.95,-69.63 -200.06,-210.45z"/>
   <path class="fil9" d="M-5685.95 5662.66c-4.77,-55.39 23.82,-104.43 63.51,-112.34 38.11,-7.92 73.04,30.05 76.22,83.86 4.77,53.78 -23.82,104.43 -61.92,112.33 -38.11,7.92 -73.04,-30.06 -77.81,-83.85z"/>
   <path class="fil18" d="M-5658.92 5654.68c-3.18,-33.21 14.28,-63.28 36.51,-68.02 23.82,-4.74 42.88,17.4 46.05,50.62 3.18,31.65 -14.29,61.71 -36.52,66.48 -22.23,6.32 -42.87,-17.43 -46.04,-49.08z"/>
   <path class="fil9" d="M-5654.21 5656.19c-1.58,-30.06 12.71,-58.55 34.93,-63.29 20.64,-4.76 39.7,17.4 42.87,47.47 1.6,30.07 -12.7,58.52 -34.93,63.29 -20.64,3.16 -39.69,-17.41 -42.87,-47.47z"/>
   <path class="fil18" d="M-5539.85 5632.42c-1.59,-18.98 -6.35,-36.41 -14.28,-49.04l88.91 -42.73c6.35,18.98 11.11,41.15 14.29,63.29l-88.92 44.3c0,-6.34 0,-11.08 0,-15.82z"/>
   <path class="fil18" d="M-5597.1 5542.33l49.22 -115.49c14.29,9.48 28.58,20.55 39.7,34.8l-49.22 115.49c-9.54,-17.4 -23.82,-30.04 -39.7,-34.8z"/>
   <path class="fil18" d="M-5624.02 5540.7c-12.7,1.58 -23.81,7.92 -33.34,17.4l-23.82 -132.89c14.3,-7.92 30.17,-14.25 46.05,-17.41l1.59 0 23.81 131.32c-3.17,0 -7.94,1.58 -14.29,1.58z"/>
   <path class="fil18" d="M-5690.76 5629.26l-85.73 -66.47c6.35,-22.14 15.87,-42.71 25.4,-60.11l85.74 68.03c-12.7,12.67 -20.64,34.81 -25.41,58.55z"/>
   <path class="fil18" d="M-5628.81 5754.41l-47.64 123.42c-15.88,-7.93 -30.17,-17.41 -42.87,-30.07l49.22 -123.42c9.53,15.83 23.82,26.91 41.29,30.07z"/>
   <path class="fil18" d="M-5541.45 5662.56l82.57 58.55c-4.77,22.14 -12.71,41.12 -22.23,60.1l-82.57 -58.52c12.7,-15.82 20.64,-36.41 22.23,-60.13z"/>
   <path class="fil18" d="M-5692.31 5645.13c0,6.32 0,12.66 0,18.98 1.58,17.4 6.35,33.23 12.7,47.47l-96.86 41.14c-6.35,-20.55 -11.11,-42.72 -12.69,-66.44l96.85 -41.15z"/>
   <path class="fil18" d="M-5606.59 5754.34c12.7,-3.19 25.4,-9.51 34.93,-20.59l26.99 128.18c-14.29,11.06 -30.17,17.4 -46.05,22.14l-26.99 -129.73c3.18,1.58 6.35,1.58 11.12,0z"/>
   <path class="fil11" d="M-5390.82 5711.16c34.83,-183.75 -50.08,-354.01 -189.67,-380.29 -139.6,-26.28 -280.98,101.38 -315.82,285.13 -34.83,183.77 50.09,354.02 189.68,380.3 139.6,26.25 280.98,-101.4 315.81,-285.14z"/>
   <path class="fil18" d="M-5706.51 5368.31c0,-3.19 44.46,-30.06 96.86,-23.74 50.81,6.31 74.62,23.74 79.39,41.14 3.17,17.41 -69.87,113.91 -69.87,113.91l-60.34 -31.64c0,-1.58 -46.04,-85.43 -46.04,-99.67z"/>
   <path class="fil18" d="M-5522.29 5585.01c0,0 46.04,-61.71 55.57,-75.93 9.53,-12.66 20.64,-37.99 30.17,-28.49 9.52,9.48 28.58,61.72 31.75,99.67 3.18,39.58 3.18,85.46 -3.17,93.36 -6.36,7.92 -36.53,3.16 -63.52,-9.48 -26.99,-12.66 -50.8,-79.13 -50.8,-79.13z"/>
   <path class="fil18" d="M-5595.4 5770.13c0,0 3.18,-17.41 44.46,-3.16 41.28,14.24 103.2,42.73 104.8,52.21 1.58,11.08 -28.59,53.81 -52.4,80.71 -17.47,18.99 -71.46,60.11 -79.39,50.63 -14.29,-18.98 -14.29,-39.57 -14.29,-39.57l7.93 -69.61 -11.11 -71.21z"/>
   <path class="fil18" d="M-5833.6 5673.65c0,0 -33.35,9.48 -33.35,-28.49 0,0 4.76,-58.55 30.17,-120.26 25.4,-63.29 57.16,-23.72 73.04,0 15.88,23.75 33.34,68.05 25.4,96.51 -7.93,28.49 -49.22,41.15 -95.26,52.24z"/>
   <path class="fil18" d="M-5644.64 5526.45c0,-3.18 -20.64,-68.04 -27,-83.87 -6.35,-14.24 -26.99,-44.31 -9.52,-49.04 15.88,-4.74 71.45,0 93.68,11.07 22.23,11.06 27,22.15 22.23,41.14 -4.77,19 -50.82,80.7 -53.99,85.45 -4.76,6.31 -22.23,14.23 -25.4,-4.75z"/>
   <path class="fil18" d="M-5535.09 5607.09c0,0 -1.59,-3.15 12.7,-22.16 15.89,-20.56 31.76,-42.7 39.7,-47.47 7.94,-4.73 15.88,25.33 19.05,42.74 1.59,17.4 6.36,80.68 3.19,85.45 -1.6,4.74 -68.29,-25.33 -68.29,-25.33 0,0 0,-15.82 -6.35,-33.23z"/>
   <path class="fil18" d="M-5595.43 5770.11c-1.58,3.18 6.36,63.28 4.77,87.03 -1.59,22.14 -6.35,60.12 1.59,60.12 7.94,0 46.04,-37.98 58.75,-53.81 12.7,-15.81 39.69,-49.04 33.34,-58.52 -6.35,-9.5 -69.86,-37.98 -77.81,-41.15 -9.52,-1.57 -19.04,-3.15 -20.64,6.33z"/>
   <path class="fil18" d="M-5770.1 5930.06c0,0 25.4,11.06 38.11,4.74 12.7,-7.91 23.82,-63.29 26.99,-96.52 3.18,-33.22 0,-68.05 -4.77,-71.21 -4.76,-3.15 -19.05,-1.58 -36.51,9.51 -17.47,11.08 -74.63,41.14 -79.39,44.3 -4.77,3.16 -19.06,14.25 -15.88,30.06 1.59,17.4 49.22,66.46 71.45,79.12z"/>
   <path class="fil18" d="M-5701.28 5716.45c10.52,-0.18 18.85,-11.66 18.62,-25.63 -0.24,-13.99 -8.96,-25.17 -19.48,-25 -10.52,0.18 -18.86,11.66 -18.62,25.63 0.24,13.98 8.96,25.17 19.48,25z"/>
   <path class="fil18" d="M-5652.99 5607.17c9.63,-0.48 16.93,-11.46 16.29,-24.55 -0.63,-13.09 -8.96,-23.31 -18.6,-22.87 -9.63,0.48 -16.93,11.46 -16.29,24.55 0.64,13.1 8.96,23.35 18.6,22.87z"/>
   <path class="fil18" d="M-5576.9 5662.41c9.64,-0.48 16.93,-11.46 16.29,-24.55 -0.63,-13.08 -8.96,-23.32 -18.59,-22.87 -9.64,0.48 -16.94,11.46 -16.3,24.55 0.64,13.09 8.96,23.32 18.6,22.87z"/>
   <path class="fil18" d="M-5624.47 5770.08c9.63,-0.48 16.92,-11.46 16.29,-24.55 -0.64,-13.11 -8.97,-23.34 -18.61,-22.87 -9.62,0.46 -16.92,11.46 -16.29,24.55 0.64,13.1 8.97,23.32 18.61,22.87z"/>
   <path class="fil5" d="M-6732.45 5268.61c0,0 -28.57,-4.74 -31.75,15.83 -3.18,20.58 -11.11,91.77 7.94,93.35l168.31 0c0,0 87.33,-15.82 119.08,-72.77 0,0 25.4,-33.24 -22.23,-37.98 -49.22,-4.74 -241.35,1.57 -241.35,1.57z"/>
   <path class="fil19" d="M-6076.67 5502.81c22.23,-44.31 42.88,-117.07 77.81,-181.96 38.1,-69.61 52.4,-79.12 90.5,-128.16 12.7,-17.4 -192.12,20.56 -177.83,9.51 0,0 -647.82,3.15 -741.5,0 -95.28,-3.17 -627.19,-34.83 -820.9,-115.53 -31.76,-12.66 -85.74,-69.61 -98.44,-93.35 0,0 -22.23,36.41 -19.06,69.63 9.53,115.5 0,159.8 19.06,237.33 4.76,15.83 28.57,90.2 115.9,155.07l590.67 151.89 914.58 -12.66c-3.18,-3.15 28.57,-50.62 49.21,-91.77z"/>
   <path class="fil8" d="M-7758.22 5097.78c1.59,120.26 15.88,148.74 30.17,166.15l50.81 34.8c6.35,3.15 12.7,0 12.7,-7.92l-15.88 -118.66c-1.59,-9.5 -6.34,-17.4 -12.69,-23.75l-65.11 -50.62z"/>
   <path class="fil16" d="M-7639.02 5178.52c0,0 1.59,60.13 7.94,102.83 1.59,19.01 4.77,34.83 9.53,42.73 11.11,20.56 65.1,41.15 90.5,45.89 25.41,4.74 449.35,82.27 449.35,82.27 0,0 28.59,4.76 30.17,-23.72 1.59,-28.49 3.17,-134.5 3.17,-134.5 0,0 0,-30.07 -26.99,-28.49 -52.39,1.58 -471.57,-47.47 -549.38,-98.1 -3.17,-3.15 -11.11,-6.31 -14.29,11.09z"/>
   <path class="fil8" d="M-6965.88 5263.95l482.7 1.58c0,0 57.15,-1.58 -6.35,79.11 -63.52,82.27 -76.22,88.59 -349.33,88.59l-127.02 3.18c0,0 -22.23,1.58 -20.64,-22.17 1.59,-23.72 1.59,-140.82 1.59,-140.82 0,0 1.59,-7.89 19.05,-9.47z"/>
   <path class="fil16" d="M-6786.43 5362.06l-166.72 75.96c0,0 244.53,-1.58 325.5,-4.77 80.98,-3.15 130.19,-63.28 133.38,-91.74 1.58,-28.49 -269.93,15.81 -292.16,20.55z"/>
   <path class="fil20" d="M-6775.32 5338.29c0,0 -139.73,-45.88 -166.73,-52.19 -26.99,-6.33 -20.64,-22.15 -1.58,-22.15 33.34,0 249.28,0 249.28,0 0,0 -26.99,112.34 -80.97,74.34z"/>
   <path class="fil16" d="M-7686.73 5216.46l11.12 83.87c0,0 -22.23,-15.82 -50.81,-34.8 -20.64,-14.24 -25.4,-74.38 -19.05,-93.35 4.76,-20.59 52.39,37.96 58.74,44.28z"/>
   <path class="fil20" d="M-7726.4 5167.43c0,0 23.82,-1.57 33.34,-3.18 9.54,-1.57 4.77,-11.05 0,-15.82 -4.75,-4.74 -49.21,-39.55 -49.21,-39.55 0,0 -11.12,36.4 15.87,58.55z"/>
   <path class="fil21" d="M-6734.09 5393.69l-3.17 22.16c0,0 238.16,26.88 265.16,-113.94 0,0 9.53,-22.14 -14.29,-22.14l-247.7 113.92z"/>
   <path class="fil22" d="M-6719.79 5278.24l-14.29 115.5c0,0 234.99,25.32 261.98,-94.94 0,0 9.54,-18.98 -14.28,-18.98l-233.41 -1.58z"/>
   <path class="fil12" d="M-5214.55 5404.79l23.83 314.87c0,0 87.33,-175.63 60.36,-349.67 0,1.58 -22.24,33.22 -84.19,34.8z"/>
   <path class="fil6" d="M-6224.34 5759.12l-111.15 -25.32c0,0 -52.39,60.13 -173.06,23.72 -120.68,-36.38 -416.01,-69.61 -498.58,-118.65l-33.34 -33.23 681.17 34.8 184.18 39.55 -49.22 79.13z"/>
   <path class="fil12" d="M-6103.62 5518.56c0,0 -636.71,33.22 -703.39,23.75 0,0 -19.06,-7.93 -38.12,14.23 -19.05,22.15 -33.34,39.55 -76.21,33.23 -42.87,-6.34 -90.5,-9.51 -90.5,-9.51 0,0 -15.88,-4.74 -23.82,-20.55 -7.94,-15.83 -63.51,-20.57 -63.51,-20.57l-447.76 -98.11c-6.35,-1.59 -11.12,3.18 -12.71,7.92 0,4.74 -1.58,7.9 -4.76,9.48 -4.76,3.18 -25.41,-1.58 -44.45,-14.22 -15.89,-11.08 -27,-36.41 -27,-36.41 0,0 -41.29,-18.97 -73.04,-28.48 0,0 23.82,41.15 68.28,79.11 90.5,75.95 671.63,175.64 671.63,175.64 0,0 206.42,30.07 362.03,28.49 154.02,-1.6 368.37,1.58 395.36,-3.18 26.99,-4.74 68.27,-20.57 131.78,-153.48l-23.81 12.66z"/>
   <path class="fil10 str0" d="M-6303.75 5662.64c0,0 106.39,-117.1 117.5,-164.57 11.12,-47.46 106.39,-610.74 798.66,-620.24 182.61,-3.16 241.35,180.38 241.35,180.38l450.49 -53.83"/>
   <path class="fil23" d="M-6570.44 5390.55c29.82,0 53.98,-24.1 53.98,-53.78 0,-29.72 -24.16,-53.81 -53.98,-53.81 -29.81,0 -53.98,24.09 -53.98,53.81 0,29.68 24.17,53.78 53.98,53.78z"/>
   <path class="fil24" d="M-6559.32 5373.1c20.17,0 36.52,-16.28 36.52,-36.39 0,-20.1 -16.35,-36.38 -36.52,-36.38 -20.17,0 -36.52,16.28 -36.52,36.38 0,20.11 16.35,36.39 36.52,36.39z"/>
   <path class="fil8" d="M-6768.94 5012.28c-25.4,3.15 -44.45,-22.14 -31.75,-44.31 22.23,-41.12 53.99,-94.93 85.74,-121.84 7.94,-6.32 15.88,-11.05 33.35,-15.82 17.46,-3.16 223.87,-50.63 319.14,-52.2 19.05,0 49.23,15.82 58.75,20.55 9.53,6.35 19.05,14.25 14.29,30.08 -4.76,15.81 -42.87,104.42 -60.34,123.4 -15.87,3.17 -223.87,30.08 -284.21,38 -31.76,4.74 -90.51,14.24 -134.97,22.14z"/>
   <path class="fil25" d="M-6729.22 4898.47c9.54,-14.25 27,-47.47 39.7,-50.63 17.47,-4.77 263.58,-49.05 336.62,-50.63 11.11,0 25.4,6.32 31.75,9.48 6.35,3.16 19.05,9.51 14.29,22.17 -4.76,14.21 -27,74.35 -36.52,87.01 -9.52,12.66 -25.4,12.66 -25.4,12.66 0,0 -204.82,30.06 -322.33,49.04 -39.69,6.35 -96.86,17.4 -98.44,12.66 -1.59,-6.31 44.46,-66.44 60.33,-91.76z"/>
   <path class="fil8" d="M-6659.45 4896.93c7.02,0 12.7,-5.67 12.7,-12.63 0,-7 -5.68,-12.66 -12.7,-12.66 -7.01,0 -12.71,5.66 -12.71,12.66 0,6.96 5.7,12.63 12.71,12.63z"/>
   <path class="fil12" d="M-6661.04 4895.38c6.14,0 11.12,-4.97 11.12,-11.08 0,-6.12 -4.98,-11.09 -11.12,-11.09 -6.13,0 -11.12,4.97 -11.12,11.09 0,6.11 4.99,11.08 11.12,11.08z"/>
   <path class="fil26" d="M-6726.06 4930.19c0,0 0,-1.59 7.94,-17.41 7.93,-14.24 17.47,-31.65 25.4,-39.54 7.94,-7.92 7.94,-9.51 25.41,-14.24 19.05,-4.77 47.63,-11.08 53.98,-9.51 6.35,0 20.64,7.92 22.23,15.83 1.59,7.92 -28.58,44.3 -46.05,58.55 -6.35,4.73 -12.7,12.66 -22.22,17.4 -9.54,4.73 -74.63,7.89 -66.69,-11.08z"/>
   <path class="fil27" d="M-6611.73 4914.33c0,0 42.87,-26.9 49.22,-34.8 6.35,-7.92 12.7,-23.75 14.29,-25.32 1.59,-1.58 60.33,-18.98 76.22,-23.72 15.87,-4.77 39.69,-15.83 46.05,-19.01 12.7,1.58 28.58,7.92 28.58,12.66 0,4.74 4.76,90.19 4.76,90.19l-26.99 6.32 -133.38 11.09c-12.7,0 -25.4,-1.58 -36.52,-6.32 -9.53,-3.18 -22.23,-7.92 -22.23,-11.09z"/>
   <path class="fil26" d="M-6425.93 4811.52c0,0 19.05,-7.89 41.28,-9.47 11.11,3.16 22.23,12.67 23.81,15.82 1.6,3.16 -6.35,58.55 -12.7,77.54 -4.76,14.24 -17.46,23.72 -31.75,25.32l-12.7 1.58c0,0 14.28,-6.35 17.46,-23.75 3.18,-17.4 4.76,-71.21 3.18,-74.36 0,-3.17 -28.58,-12.68 -28.58,-12.68z"/>
   <path class="fil8" d="M-6437.07 4892.12c9.65,0 17.47,-8.5 17.47,-18.99 0,-10.48 -7.82,-18.98 -17.47,-18.98 -9.65,0 -17.47,8.5 -17.47,18.98 0,10.49 7.82,18.99 17.47,18.99z"/>
   <path class="fil28" d="M-6440.29 4888.96c7.89,0 14.29,-7.1 14.29,-15.83 0,-8.74 -6.4,-15.81 -14.29,-15.81 -7.9,0 -14.29,7.07 -14.29,15.81 0,8.73 6.39,15.83 14.29,15.83z"/>
   <path class="fil29" d="M-6699.01 4844.66c33.35,-17.41 274.69,-55.37 352.49,-58.55 12.7,0 36.52,11.08 42.87,12.66 6.36,3.15 20.64,9.5 15.88,23.74 -4.77,14.24 -34.93,98.1 -69.86,123.42 -28.59,20.56 -428.71,45.89 -430.3,41.12 -3.17,-3.16 65.1,-131.31 88.92,-142.39z"/>
   <path class="fil30" d="M-6965.87 5263.95l482.69 1.58c0,0 57.17,-1.58 -6.34,79.11 -63.52,82.27 -76.22,88.61 -349.32,88.61l-127.03 3.16c0,0 -22.22,1.58 -20.64,-22.17 1.59,-23.72 1.59,-140.82 1.59,-140.82 0,0 1.59,-7.89 19.05,-9.47z"/>
   <polygon class="fil31" points="-5257.94,6387.44 -4930.99,6490.47 -4883.68,6280.2 -5202.23,6106.76 "/>
   <polygon class="fil31" points="-6582.58,6305.42 -6487.96,6637.64 -6291.37,6549.32 -6347.1,6280.2 "/>
   <polygon class="fil31" points="-7270.1,3174.67 -6802.28,3370.2 -6920.02,3520.54 -7318.46,3371.26 "/>
   <path class="fil32" d="M-6371.23 5382.35c0,0 507.77,72.54 842.08,206.06l109.33 -1128.03 -517.23 -437.34 -434.18 1359.31z"/>
   <path class="fil20" d="M-6466.85 2167.54c0,0 18.93,85.16 -16.82,212.36 0,0 -106.18,198.69 -183.98,435.23 -82,249.16 140.88,277.54 140.88,277.54 0,0 -32.59,-89.36 -5.26,-107.23 0,0 68.34,288.05 455.21,298.56 0,0 15.77,-51.51 142.97,-74.64 24.19,43.1 153.49,144.03 309.08,121.95 130.36,-18.92 261.77,-117.74 427.85,-215.52 0,0 7.38,63.08 -62.01,124.06 0,0 213.42,88.31 421.56,-55.72 56.94,-39.52 103.79,-77.48 141.62,-114.95l0 -817.45c-155.3,-98.88 -807.75,-495.97 -1200.25,-448.98 -486.75,57.81 -570.85,364.79 -570.85,364.79z"/>
   <path class="fil4" d="M-6566.76 6688.06c-530.9,11.56 -996.62,269.13 -452.06,342.72 537.92,72.69 1353.84,191.49 2323.07,-18.38l0 -253.58c-426.15,-59.69 -1178.36,-86.03 -1871.01,-70.76z"/>
   <path class="fil7" d="M-6232.54 6717.52c4.2,-93.57 -68.34,-299.61 -68.34,-299.61 -72.53,40.99 -208.15,83.04 -268.07,98.81l19.98 68.33c-76.75,160.86 -116.69,173.47 -248.11,217.62 -16.81,5.24 -108.28,17.86 -131.41,66.23 -6.31,12.61 -22.08,69.38 -22.08,69.38 0,0 486.75,26.28 505.67,1.05 31.54,-42.05 95.67,-88.31 95.67,-88.31l-24.18 79.91c0,0 72.53,12.62 97.77,-10.52 1.04,0 44.15,-150.33 43.1,-202.89z"/>
   <path class="fil20" d="M-6498.51 2562.83c0,0 118.79,226.03 269.13,280.69 149.28,54.67 1002.9,-31.54 1002.9,-31.54 0,0 123.01,-168.2 186.08,-296.46 62.04,-128.26 -1458.11,47.31 -1458.11,47.31z"/>
   <path class="fil33" d="M-5409.31 3222.99l-22.08 -287 -328 9.46 42.05 319.59c44.15,29.43 251.26,31.54 308.03,-42.05z"/>
   <path class="fil21" d="M-6297.62 6276.96c-3.15,-90.42 -25.22,-365.84 -86.2,-545.62l734.85 -483.59 -427.88 -388.95c-503.56,434.16 -769.53,696.99 -782.15,845.21 -11.57,132.47 309.08,782.15 309.08,782.15 0,0 145.07,-47.29 274.39,-68.33l-22.09 -140.87z"/>
   <path class="fil7" d="M-4695.75 6319.67c-91.83,-57.82 -267.89,-93.21 -267.89,-93.21 -45.22,58.88 -64.12,194.48 -80.94,282.79l80.94 8.43c24.16,67.28 51.52,97.76 37.83,150.32 -22.06,87.26 -100.9,32.6 -148.21,126.15 -23.12,45.21 -25.23,104.09 -25.23,104.09 0,0 154.53,0 352.18,0 24.83,0 38.91,-39.11 51.32,-97.41l0 -481.16z"/>
   <path class="fil34" d="M-6156.79 4929.31c43.1,-88.32 124.06,-313.29 124.06,-313.29l330.1 12.62 411.04 28.38 92.52 240.75c0,0 35.73,271.22 19.96,353.24 -54.66,278.58 -204.98,445.72 -220.75,625.51 0,0 37.84,16.82 36.79,29.44 -2.1,22.07 -13.66,59.93 -13.66,59.93 99.85,32.57 209.18,129.29 415.24,237.58 0,0 -90.42,201.85 -162.96,287l-115.62 -77.8c0,0 -580.3,-190.27 -616.05,-324.85 -47.31,-178.7 23.12,-888.33 23.12,-888.33l-323.79 -270.18z"/>
   <path class="fil20" d="M-5090.87 3323.95c-32.6,-14.72 -277.53,-64.12 -277.53,-64.12l-6.31 -74.64c-47.31,0 -277.54,87.25 -364.8,55.71l10.52 85.15 -170.31 130.36 -7.35 313.27c0,0 -32.59,73.6 -39.96,180.84 -6.3,78.83 -7.35,125.1 34.7,223.91 39.94,94.61 -66.24,293.3 -144.03,453.1 407.9,177.68 784.25,139.82 784.25,131.42 59.93,-989.27 175.58,-1437.11 180.82,-1435z"/>
   <path class="fil31" d="M-5217.98 2488.14c-12.61,-152.44 65.17,-292.26 193.43,-299.61 128.25,-7.37 190.29,181.87 55.72,360.58 -134.56,179.78 -241.8,44.16 -249.15,-60.97z"/>
   <path class="fil33" d="M-4937.42 2359.97c4.22,-21.02 -5.24,-46.25 -25.23,-58.87 -9.45,-6.31 -21.03,-10.52 -33.64,-10.52 -11.56,0 -25.23,5.26 -33.62,13.68 -17.89,15.77 -28.39,35.74 -37.86,56.77 -8.41,21.03 -15.78,40.99 -17.86,65.17 0,5.26 3.13,9.47 8.4,10.52 3.15,0 5.27,-1.05 7.37,-2.1 14.69,-13.67 34.68,-17.88 50.45,-5.26 15.78,10.52 25.22,31.54 24.17,51.51 -1.05,18.93 -15.77,38.9 -31.52,52.57 -8.42,6.3 -17.87,12.61 -28.41,13.67 -10.5,1.04 -18.91,-8.42 -22.06,-18.93 1.05,5.26 3.15,11.56 6.32,15.77 4.19,5.26 9.45,7.36 15.74,8.41 12.64,1.05 24.2,-4.21 33.65,-10.51 9.46,-6.31 17.89,-14.72 25.23,-24.18 7.37,-9.47 12.61,-21.03 14.72,-33.64 3.15,-25.24 -7.35,-51.52 -27.33,-67.29 -10.51,-8.4 -25.23,-12.61 -38.9,-10.51 -13.66,2.11 -25.22,8.41 -34.7,15.77l15.78 8.41c1.05,-18.92 8.42,-39.95 15.77,-58.87 7.37,-18.93 17.87,-37.84 30.48,-52.56 12.62,-13.67 34.71,-15.77 52.56,-6.31 18.93,5.26 30.49,26.28 30.49,47.3z"/>
   <path class="fil31" d="M-6345.12 2799.35c39.95,125.1 239.7,330.11 431.03,391.08 255.46,21.03 651.78,-231.28 686.49,-334.31 70.43,-213.41 144.03,-748.52 138.76,-994.51 -5.27,-246.01 -267.03,-509.88 -622.36,-535.11 -355.33,-25.23 -645.49,187.13 -679.12,465.72 -33.64,278.59 15.77,913.56 45.2,1007.13z"/>
   <path class="fil35" d="M-6189.79 2410.08c11.78,-27.17 -24.45,-69.03 -80.91,-93.51 -56.46,-24.48 -111.79,-22.29 -123.56,4.87 -11.78,27.17 24.45,69.04 80.91,93.51 56.47,24.48 111.79,22.3 123.56,-4.87z"/>
   <path class="fil20" d="M-6312.4 2411.41c-63.08,-96.73 -50.46,-216.56 -50.46,-216.56 96.72,-413.16 200.79,-541.42 457.31,-654.96 0,0 271.23,377.41 720.12,541.41 0,0 -62.04,70.44 -24.17,293.31 62.37,-187.13 272.04,-237.51 513.85,-118.04l0 -664.2c-191.39,-524.02 -1094.46,-600.47 -1437.93,-317.4 -449.95,198.69 -423.67,857.85 -350.07,918.82 59.92,49.41 32.58,196.59 171.35,217.62z"/>
   <path class="fil20" d="M-6375.51 2044.59c75.7,-55.72 175.57,-99.87 264.93,-58.87 44.16,-8.41 -55.72,-83.05 -137.72,-83.05 -82,0 -125.1,125.1 -127.21,141.92z"/>
   <path class="fil20" d="M-5507.13 2035.09c-72.54,-53.62 -169.25,-96.72 -254.41,-55.71 -43.1,-8.42 53.62,-79.9 132.46,-80.95 78.85,0 120.9,120.89 121.95,136.66z"/>
   <path class="fil35" d="M-5531.45 2488.98c61.07,-7.64 107.6,-37.65 103.93,-67.04 -3.68,-29.37 -56.16,-47 -117.23,-39.36 -61.07,7.64 -107.6,37.64 -103.93,67.03 3.68,29.38 56.16,47 117.23,39.37z"/>
   <path class="fil36" d="M-6126.24 2517.55c0,0 83.05,-168.2 49.41,-322.74 87.26,-55.72 150.33,-16.82 178.72,18.93 -23.13,115.63 -30.49,244.94 -5.26,320.63 -89.36,55.73 -178.72,44.15 -222.87,-16.82z"/>
   <path class="fil33" d="M-6126.24 2517.62c9.46,-8.4 120.9,-3.15 222.87,16.83 -32.58,54.66 -84.1,80.95 -119.85,78.85 -35.74,-3.16 -96.71,-43.11 -103.02,-95.68z"/>
   <path class="fil33" d="M-6121.05 2733.09c34.7,27.34 76.75,43.11 118.79,50.47 42.05,7.35 86.21,6.3 127.21,-3.16 5.25,-1.05 10.51,-2.1 15.77,-3.15l15.77 -4.21c10.51,-3.15 21.02,-5.25 30.49,-10.51l30.48 -11.56c9.47,-4.21 18.93,-9.47 29.44,-14.72l14.71 -7.36c5.26,-2.11 9.47,-5.26 13.68,-8.41l28.38 -16.82c18.93,-11.56 36.79,-24.19 55.72,-35.75 -15.77,14.72 -32.59,30.49 -49.42,44.15l-27.33 19.98c-4.2,3.16 -9.46,6.31 -13.66,9.46l-14.72 8.42c-37.84,24.17 -80.95,39.94 -125.11,50.45 -44.15,9.47 -91.46,9.47 -135.61,-1.05 -43.1,-10.51 -85.15,-32.58 -114.59,-66.23z"/>
   <path class="fil33" d="M-5692.35 2654.29c8.42,-5.25 18.93,-5.25 28.39,-3.14 9.46,2.1 17.87,8.4 25.23,14.71 13.67,13.67 19.97,34.7 13.67,52.56 -5.26,-8.4 -9.46,-14.71 -13.67,-22.07 -4.2,-6.31 -9.46,-12.62 -14.71,-17.87 -5.26,-5.26 -10.51,-10.52 -16.83,-14.72 -6.31,-2.1 -12.61,-6.31 -22.08,-9.47z"/>
   <path class="fil7" d="M-6236.74 2229.48c-1.06,23.12 17.87,43.1 40.99,44.15 23.14,1.05 43.1,-17.87 44.17,-41 1.04,-23.13 -17.88,-43.11 -41.01,-44.15 -23.13,-1.05 -43.1,16.81 -44.15,41z"/>
   <path class="fil37" d="M-6192.49 2221.14c0,9.46 6.31,16.82 15.77,16.82 9.46,0 16.81,-6.3 16.81,-15.77 0,-9.46 -6.3,-16.81 -15.76,-16.81 -8.41,-1.07 -15.77,6.3 -16.82,15.76z"/>
   <path class="fil20" d="M-5719.28 2287.37c3.15,-15.77 12.61,-28.38 23.13,-38.89 11.56,-10.52 26.28,-18.93 43.1,-21.03 16.83,-3.16 33.64,0 48.36,7.36 7.36,3.16 13.67,8.41 18.92,13.67 5.26,5.25 9.47,11.56 13.67,18.92 -8.41,-1.05 -14.72,-3.15 -21.02,-5.26 -7.37,-1.05 -12.62,-3.15 -18.93,-3.15 -12.61,-2.11 -23.13,-2.11 -34.69,0 -11.57,2.1 -22.08,5.26 -33.64,10.51 -13.67,4.21 -26.29,10.52 -38.9,17.87z"/>
   <path class="fil16" d="M-5192.82 2911.81c11.55,15.77 17.87,32.58 22.09,49.41 4.19,16.82 6.29,34.69 6.29,52.56 0,17.88 -2.1,35.75 -7.35,52.56 -5.26,16.83 -13.66,34.7 -27.33,48.36 -3.16,-18.92 -5.27,-35.73 -6.32,-52.55 -1.05,-16.83 -2.1,-32.6 -1.05,-49.42 0,-16.82 1.05,-32.59 3.16,-49.41 2.1,-15.77 4.21,-32.59 10.51,-51.51z"/>
   <path class="fil38" d="M-4982.55 3069.47c-47.32,-85.15 139.82,-369 265.96,-252.31 8.83,8.09 15.66,17.36 20.84,27.46l0 122.06c-44.9,129.31 -201.96,254.17 -286.8,102.79z"/>
   <path class="fil39" d="M-4695.75 3219.98l-367.74 -319.67 124.04 -179.77c83.23,48.43 165.75,98.61 243.7,149.59l0 349.85z"/>
   <path class="fil40" d="M-5809.82 3330.24c-154.54,-18.93 -695.94,-28.38 -1207.92,-71.49l-131.41 -71.49c0,0 -12.62,73.59 -89.36,273.34l86.21 48.36c0,0 -21.03,25.22 84.1,88.29 0,0 70.43,86.2 182.92,172.4 125.11,59.93 486.75,60.99 486.75,60.99l405.79 112.48 25.24 -257.57 157.68 -355.31z"/>
   <path class="fil40" d="M-5801.45 3459.56c0,0 -105.12,97.77 -131.41,611.84 -10.51,209.2 -152.43,580.3 -257.56,925.13 -105.13,344.83 -106.18,622.38 -219.72,610.79 -100.92,-10.5 -217.62,-97.77 -308.03,-227.07 -19.97,-28.38 -23.12,-65.17 -7.35,-95.66 52.57,-103.04 185.03,-347.99 311.18,-478.35 144.03,-149.27 319.59,-691.73 319.59,-691.73 0,0 -38.89,-209.21 1.05,-333.27 27.33,-86.21 93.57,-188.17 93.57,-188.17 0,0 22.07,-38.9 66.22,-167.15l196.59 -152.44 6.32 53.62 -70.45 132.46z"/>
   <path class="fil32" d="M-6093.63 4114.41c-18.93,-57.82 -29.44,-118.78 -33.65,-180.82 -2.1,-30.48 -2.1,-62.03 1.06,-93.55 1.05,-7.38 2.1,-15.77 3.15,-23.15 1.05,-7.34 2.11,-15.77 4.21,-23.11 4.21,-15.77 8.41,-31.55 14.72,-45.22 11.56,-29.43 25.23,-56.76 39.94,-84.09 14.72,-27.34 30.49,-53.62 49.42,-78.85l1.05 -1.05 1.05 -2.11 3.15 -4.2 5.26 -9.46 10.51 -19.97c7.36,-13.67 13.66,-27.33 19.97,-41 13.67,-27.33 26.28,-54.66 41,-82 -5.25,30.49 -13.66,59.93 -22.07,89.36 -4.21,14.71 -9.47,29.43 -13.67,44.15 -2.1,7.36 -5.26,14.72 -8.41,22.07l-4.2 10.52 -2.1 5.25 -1.06 3.15c-1.05,1.06 -2.1,3.16 -2.1,3.16 -28.38,52.55 -55.72,106.19 -76.74,159.79 -10.51,27.33 -17.88,53.61 -22.08,83.05 -4.2,28.38 -6.31,57.83 -8.41,88.32 -2.11,57.82 -1.05,118.8 0,179.76z"/>
   <path class="fil40" d="M-5373.59 3196.68c0,0 -152.44,87.26 -145.07,133.51 0,0 -65.19,273.33 -65.19,617.1 0,252.3 -176.61,1569.56 -183.96,1731.47 -8.42,161.88 9.46,169.26 145.07,189.21 140.87,21.04 465.72,-18.9 663.35,-55.71 99.88,-18.91 121.94,-83.05 116.7,-138.76 -39.96,-414.22 -155.61,-719.1 -162.95,-1114.37 -6.32,-308.02 112.48,-787.42 111.43,-904.09 -1.05,-116.7 -5.24,-257.57 -63.06,-390.03 0,0 -125.13,-24.18 -218.68,11.56 -1.06,-1.04 -89.36,-115.64 -197.64,-79.89z"/>
   <path class="fil40" d="M-5081.32 3257.7c97.92,-31.9 243.35,-29.29 385.57,-29.44l0 575.78c-34.3,12.79 -70.57,24.89 -109.08,36.05l-136.64 106.19 -138.8 -450.99 0 -237.59 -1.05 0z"/>
   <path class="fil40" d="M-4695.75 3368.8c-6.22,-6.88 -12.44,-14.11 -18.63,-21.76 -107.22,-132.46 -90.42,-137.72 -180.81,-179.77 -90.42,-42.05 -87.26,-97.76 -87.26,-97.76 0,0 60.98,94.61 166.09,-9.47 69.6,-68.22 113.45,-114.3 120.61,-162.52l0 471.28zm0 -499.39c-2.44,-16.69 -9.21,-34.14 -20.73,-53.26l20.73 19.02 0 34.24z"/>
   <path class="fil32" d="M-6533.1 5256.18c-16.81,0 -34.69,-3.14 -51.51,-10.51 -29.43,-11.56 -48.36,-30.49 -56.77,-55.72 -17.87,-53.6 15.77,-122.98 47.31,-173.46 42.05,-67.27 106.18,-176.63 107.23,-177.65 2.1,-4.22 6.31,-6.32 10.52,-7.38 4.2,-1.05 9.45,0 12.61,3.16 1.05,1.05 55.72,41 120.9,45.22 21.02,1.05 30.49,11.55 35.75,18.9 19.96,32.59 -10.52,95.68 -42.06,162.96 -10.51,22.06 -21.02,43.1 -27.33,60.98 -22.08,57.82 -60.98,103.01 -104.08,121.93 -16.82,7.38 -34.7,11.57 -52.57,11.57zm65.18 -386.88c-18.92,32.6 -66.22,111.46 -98.81,164.02 -38.91,62.03 -54.68,113.53 -44.16,146.13 5.25,16.8 17.87,28.38 37.84,36.78 27.34,10.51 54.68,10.51 78.85,0 35.75,-15.77 68.33,-53.61 87.26,-104.09 7.36,-18.9 17.87,-40.99 28.38,-63.06 21.03,-45.2 53.62,-114.58 43.1,-132.46 0,-1.06 -2.09,-3.16 -10.51,-4.21 -52.56,-4.19 -99.87,-29.45 -121.95,-43.11z"/>
   <path class="fil32" d="M-5352.63 5486.44c-44.15,0 -88.3,-9.46 -124.05,-24.18 -56.77,-23.14 -91.46,-59.92 -95.66,-100.92 -9.47,-99.88 21.02,-314.33 23.12,-323.79 1.06,-7.37 6.32,-12.63 13.67,-13.66 9.47,-1.06 230.22,-32.61 329.03,-18.94 6.32,1.06 11.58,5.27 12.64,11.56 4.18,13.67 98.82,333.27 -11.59,423.66 -39.94,32.6 -93.54,46.27 -147.16,46.27zm-168.2 -432.09c-6.3,46.26 -29.44,220.78 -21.02,303.83 3.15,28.38 30.48,55.71 75.69,74.65 70.43,29.43 178.71,33.65 238.63,-16.82 74.65,-62.04 30.49,-285.95 4.21,-380.56 -85.16,-8.43 -251.26,12.61 -297.51,18.9z"/>
   <path class="fil32" d="M-5176.98 3275.6c-65.19,39.94 -117.75,94.6 -157.7,155.58 -10.51,15.77 -18.92,31.54 -27.32,47.31 -8.41,15.77 -15.77,32.59 -22.08,49.4 -3.15,8.41 -6.3,16.82 -8.41,26.28 -3.15,8.42 -5.26,17.88 -8.4,26.28l-14.73 54.68c-19.97,73.59 -39.94,146.11 -60.96,219.7 -22.09,72.55 -44.16,145.08 -69.4,217.63 11.57,-75.7 26.28,-150.32 42.05,-224.97 15.77,-74.65 32.6,-148.24 50.47,-222.89 4.21,-18.91 8.41,-36.78 13.67,-55.71 5.25,-18.92 11.56,-37.84 18.92,-56.76 7.35,-17.87 15.77,-36.8 25.23,-53.61 9.46,-16.82 21.03,-33.64 32.59,-49.41 11.55,-15.77 25.22,-30.49 38.88,-44.16 13.67,-13.66 29.44,-26.28 45.21,-37.85 29.44,-22.07 64.14,-40.99 101.98,-51.5z"/>
   <path class="fil32" d="M-5809.83 3330.31c-31.54,65.18 -67.29,128.26 -97.78,192.38 -30.49,64.12 -54.66,130.35 -67.29,198.69 -12.61,68.33 -14.7,138.77 -9.45,209.2 5.26,70.44 17.87,141.93 28.38,213.41 -28.38,-67.27 -49.4,-136.66 -60.97,-209.19 -11.57,-72.54 -13.67,-148.24 0,-221.84 13.66,-73.59 43.1,-142.97 79.9,-206.03 36.8,-62.03 80.95,-120.91 127.21,-176.62z"/>
   <path class="fil32" d="M-7153.37 3508.93c10.52,-23.12 22.08,-44.15 32.59,-65.17l33.64 -60.98c6.32,-10.52 10.51,-19.98 16.83,-30.49 5.25,-10.52 11.56,-19.97 16.82,-30.48 11.56,-21.03 22.07,-42.05 35.74,-63.08 3.15,25.22 2.1,50.46 -4.21,74.64 -5.25,24.18 -14.71,48.36 -27.33,69.39 -11.57,22.07 -26.28,42.05 -43.11,60.96 -17.87,17.88 -37.84,34.7 -60.97,45.21z"/>
   <path class="fil32" d="M-5081.27 3257.67c-35.76,42.05 -66.24,88.31 -79.91,136.67 -7.34,24.18 -8.41,48.36 -4.22,70.44 2.12,11.57 5.27,23.13 9.48,33.64l3.16 8.41 4.19 9.46 8.43 17.87c23.11,48.36 48.34,96.71 73.59,146.13 24.17,49.4 49.39,98.82 71.48,150.32 -42.07,-38.89 -76.74,-81.99 -109.34,-127.2 -32.6,-45.21 -60.99,-93.56 -85.15,-145.08l-8.41 -18.92c-1.05,-3.15 -3.16,-6.3 -4.21,-9.46l-4.22 -11.55c-5.24,-14.72 -9.44,-30.49 -10.5,-46.26 -3.16,-31.54 3.16,-64.13 15.77,-91.46 12.62,-28.39 30.49,-52.57 51.51,-72.54 19.98,-21.03 43.1,-37.85 68.35,-50.47z"/>
   <path class="fil39" d="M-7631.86 3035.75c0,0 -57.83,29.44 -79.91,5.26 -22.08,-25.23 43.11,-38.89 71.49,-71.48 17.87,-22.09 8.42,66.22 8.42,66.22z"/>
   <path class="fil39" d="M-7632.86 2950.66c0,0 -71.48,-30.49 -65.18,-69.38 6.31,-38.9 72.54,1.05 123,7.35 19.98,2.1 22.08,63.08 5.26,77.8 -17.87,13.66 -63.08,-15.77 -63.08,-15.77z"/>
   <path class="fil39" d="M-7213.33 3255.5c2.1,-19.98 -3.16,-217.63 -13.67,-241.8 -3.15,-8.42 -28.38,-125.11 -24.17,-144.03 4.2,-17.88 -2.11,-32.59 -11.57,-48.36 -3.15,-3.15 -21.02,-36.79 -34.69,-80.95 -7.36,-45.2 -44.15,-15.77 -44.15,2.11 0,0 -5.26,-23.14 -29.44,-22.08 -21.03,1.05 -33.64,18.92 -33.64,36.79 1.05,49.41 9.46,57.82 13.66,79.9 12.62,48.36 -93.56,137.72 -74.64,154.54 15.77,13.66 -16.82,55.71 -16.82,55.71l27.33 46.26c16.82,59.92 -57.82,234.44 96.72,247.06 46.26,4.19 142.97,-65.19 145.08,-85.15z"/>
   <path class="fil31" d="M-7191.51 3270.16c2.11,-22.08 -10.51,-233.38 -22.08,-259.66 -4.2,-8.42 -33.63,-115.65 -34.68,-137.72 -1.06,-26.28 -2.11,-44.16 -13.67,-60.98 -3.15,-3.16 -23.13,-39.95 -37.85,-87.25 -7.35,-49.42 -48.36,-16.83 -48.36,2.1 -12.62,45.2 26.29,105.12 24.18,131.41 -1.05,23.12 -12.61,140.86 -1.05,156.63 -15.77,24.19 -4.21,119.85 14.72,135.62 -30.49,16.82 115.64,141.93 118.79,119.85z"/>
   <path class="fil33" d="M-7515.13 3065.11c13.67,-3.15 26.28,-8.4 37.85,-14.72 6.31,-3.15 11.57,-7.35 15.77,-11.56 5.25,-4.21 8.41,-8.4 11.57,-15.77 2.1,-3.15 4.2,-6.31 6.3,-9.47 1.05,-1.04 3.15,-3.14 5.26,-4.19 1.05,-1.06 3.15,-1.06 6.31,-1.06 2.09,0 4.2,1.06 6.3,3.16 4.21,4.2 5.26,8.41 6.31,11.56 1.06,3.16 2.11,6.3 3.16,9.46 5.25,12.61 10.51,25.23 14.72,38.9 -9.47,-10.52 -17.88,-22.08 -25.24,-33.64l-5.25 -9.46c-1.05,-3.15 -3.16,-6.31 -4.21,-6.31 0,0 0,0 1.05,0 1.06,0 1.06,0 1.06,0 0,0 -1.06,1.05 -2.11,2.1 -2.1,2.11 -4.21,4.21 -6.31,7.36 -2.09,2.1 -4.2,5.26 -7.35,8.41 -3.16,2.11 -5.26,5.25 -8.42,7.36 -6.3,4.21 -12.61,8.41 -18.92,10.51 -10.51,4.21 -24.18,7.36 -37.85,7.36z"/>
   <path class="fil33" d="M-7406.66 2757.18c3.15,11.56 6.31,23.13 8.41,34.69 2.1,11.56 6.31,22.07 8.41,34.69 5.26,24.18 5.26,48.36 5.26,72.54 0,24.18 -1.05,47.3 -1.05,71.49 0,6.3 0,11.56 1.05,16.82 0,3.15 1.05,5.25 1.05,7.35l2.1 8.42c3.15,11.56 7.36,23.12 9.46,34.69 -7.35,-9.46 -13.66,-19.97 -18.92,-30.49 -1.05,-3.15 -3.16,-5.25 -4.2,-8.41 -1.06,-3.15 -2.1,-6.31 -2.1,-9.46 -1.06,-6.31 -1.06,-12.62 -1.06,-17.87 -1.05,-24.19 0,-48.36 0,-71.49 0,-23.13 0,-47.3 -3.15,-70.44 -2.11,-11.56 -4.21,-24.17 -5.26,-35.74 0,-12.62 0,-24.18 0,-36.79z"/>
   <path class="fil33" d="M-7348.1 2726.68c-2.11,24.17 6.3,47.31 14.71,70.43 4.2,11.56 9.46,22.08 13.67,34.7 2.1,6.3 3.16,12.61 4.21,19.97 0,3.15 0,8.41 -1.05,10.51l-1.06 9.46c-3.15,24.19 -6.31,48.36 -8.41,72.54 -1.05,12.61 -2.11,24.18 -2.11,36.8 0,12.61 0,24.17 4.21,35.74 -6.3,-10.51 -8.4,-23.13 -9.46,-35.74 -1.05,-12.62 -2.1,-25.23 -2.1,-36.8 0,-25.23 2.1,-49.4 5.26,-73.59l1.04 -9.46c0,-3.15 1.05,-5.26 0,-7.35 0,-5.26 -2.09,-10.52 -3.14,-15.77 -3.16,-11.57 -8.42,-23.14 -11.57,-34.7 -8.41,-26.29 -12.62,-52.57 -4.2,-76.74z"/>
   <path class="fil20" d="M-7329.23 2694.12l-56.76 608.69c-2.11,23.13 -21.03,43.11 -41,45.21l-233.39 21.02c-21.03,2.1 -35.75,-15.77 -33.64,-38.89l56.76 -608.7c2.11,-23.13 21.03,-43.1 41.01,-45.21l233.38 -19.97c21.03,-2.1 35.75,14.72 33.64,37.85z"/>
   <path class="fil16" d="M-7360.74 2802.48l2.11 0c3.15,0 5.26,-3.14 5.26,-6.3l4.2 -42.05c0,-3.15 -2.1,-5.26 -4.2,-5.26l-2.11 0c0,0 -1.05,0 -1.05,1.06l-4.21 52.55c-1.04,0 0,0 0,0z"/>
   <path class="fil16" d="M-7369.12 2899.16c4.19,0 7.35,-4.21 8.4,-8.42l3.16 -38.89c0,-4.21 -2.11,-7.36 -5.26,-7.36l-1.05 0c0,0 -1.06,0 -1.06,1.05l-4.19 53.62c-1.07,0 -1.07,0 0,0z"/>
   <path class="fil41" d="M-7349.07 2696.29l-56.77 608.69c-2.1,23.13 -21.03,43.11 -41,45.21l-233.39 21.03c-21.03,2.1 -35.74,-15.77 -33.64,-38.9l56.77 -608.69c2.1,-23.14 21.03,-43.1 41.01,-45.21l233.38 -19.98c21.03,-3.15 35.74,14.72 33.64,37.85z"/>
   <path class="fil9" d="M-7683.42 3294.4l252.32 -22.08c6.3,-1.05 11.56,-7.36 12.61,-13.67l50.46 -540.36c1.05,-7.35 -4.2,-12.61 -10.51,-11.56l-252.31 22.08c-6.31,1.05 -11.56,7.35 -12.61,13.67l-50.47 540.36c0,7.35 5.26,12.61 10.51,11.56z"/>
   <path class="fil37" d="M-7458.56 2958.02c4.2,-21.03 -4.21,-45.2 -42.05,-41l-73.6 6.31 -48.35 161.9 37.84 -3.15 17.88 -60.98 18.92 -2.1 28.39 56.76 40.99 -3.15 -31.54 -59.93c34.7,-12.61 47.31,-33.63 51.52,-54.66zm-72.54 33.64l-27.34 2.11 14.72 -49.41 28.39 -2.11c14.72,-1.05 22.08,6.31 18.92,21.03 -3.16,15.77 -16.81,26.28 -34.69,28.38z"/>
   <path class="fil20" d="M-7543.33 3324.23c4.36,-12.62 0.33,-25.46 -9,-28.69 -9.33,-3.23 -20.43,4.4 -24.79,17.02 -4.36,12.62 -0.33,25.47 9,28.69 9.33,3.22 20.43,-4.39 24.79,-17.02z"/>
   <path class="fil7" d="M-7497.48 2686.76c0.95,-2.75 -0.06,-5.59 -2.26,-6.35 -2.19,-0.76 -4.73,0.85 -5.68,3.6 -0.95,2.74 0.05,5.58 2.25,6.34 2.2,0.76 4.74,-0.85 5.69,-3.59z"/>
   <g>
    <g style="clip-path:url(#id2)">
     <image x="-7528.68" y="2697.17" width="52.57" height="21.03" xlink:href="home_mobile2_Images\home_mobile2_ImgID1.png"/>
    </g>
   </g>
   <path class="fil20" d="M-7453.91 2701.63c0.95,-2.75 -0.05,-5.59 -2.25,-6.35 -2.2,-0.76 -4.74,0.85 -5.69,3.6 -0.94,2.74 0.06,5.58 2.26,6.34 2.19,0.76 4.74,-0.85 5.68,-3.59z"/>
   <path class="fil31" d="M-7463.63 2974.82c46.26,-15.77 74.64,39.96 107.23,144.04 76.75,77.79 141.93,6.31 164,152.43 0,0 -71.48,136.67 -145.07,94.61 -114.6,-65.17 -77.8,-170.3 -97.77,-224.96 -11.57,-26.29 -7.36,-57.83 -28.39,-97.78 -18.92,-38.89 -23.12,-59.92 0,-68.34z"/>
   <path class="fil39" d="M-5019.26 2876.68c-17.88,28.38 -99.87,50.47 -134.55,35.75 -30.49,-13.67 -131.41,-16.82 -157.7,-12.62 -26.28,4.2 -86.2,30.48 -89.35,-2.1 -6.31,-66.24 97.76,-89.36 156.63,-82 7.35,-1.06 13.67,0 13.67,0 0,0 0,-8.41 -11.56,-25.23 -10.51,-16.82 -35.75,-43.1 -47.31,-59.93 -12.63,-16.82 -45.21,-70.43 -62.03,-89.35 -16.81,-18.93 -19.97,-32.6 -44.14,-44.16 -23.14,-11.57 -112.5,-38.9 -112.5,-119.84 0,-18.93 12.62,-17.88 21.03,-25.24 1.06,-17.87 -6.31,-46.26 10.51,-59.92 16.83,-13.67 50.47,11.56 66.24,18.92 7.35,-8.41 2.1,-42.05 17.87,-45.2 15.77,-3.15 132.45,31.54 163.99,46.25 10.51,5.26 27.33,42.05 27.33,42.05 31.54,8.42 60.99,18.93 72.54,25.23 29.45,18.93 68.33,70.44 89.37,90.42 21.01,19.97 60.96,65.17 84.1,95.66 22.07,30.49 10.51,35.75 39.94,94.62 -12.61,46.26 -69.38,86.2 -104.08,116.69z"/>
   <path class="fil33" d="M-5118.03 2651.79l14.72 48.36c5.24,15.77 9.45,32.58 15.78,47.31 3.12,7.36 6.29,15.77 9.44,22.07 3.16,7.37 7.35,13.67 12.62,16.82 12.61,9.46 27.33,16.83 42.05,25.23 -17.88,2.11 -35.73,-3.15 -51.51,-12.61 -9.48,-6.31 -13.67,-14.72 -17.87,-23.13 -4.22,-8.41 -7.38,-16.82 -9.46,-24.18 -5.26,-16.82 -8.43,-33.63 -11.58,-50.46 -3.14,-15.77 -4.19,-32.59 -4.19,-49.41z"/>
   <path class="fil33" d="M-5114.94 2606.43c-7.38,-4.2 -14.72,-10.51 -21.04,-15.77 -6.29,-6.3 -12.61,-11.56 -18.94,-17.87 -12.61,-12.61 -24.16,-25.23 -35.72,-37.84l3.15 2.1c-13.66,-2.1 -28.38,-2.1 -44.15,-6.31 -7.37,-2.1 -14.72,-4.21 -21.04,-8.41 -7.35,-3.15 -13.66,-7.36 -18.92,-12.61 -11.56,-10.52 -22.07,-22.08 -27.33,-37.85 -2.1,-7.35 -3.15,-16.82 0,-25.23 4.21,-8.41 11.56,-13.66 18.93,-16.82l1.05 -1.05 1.05 0 37.83 10.51c12.64,3.15 25.25,7.36 37.86,13.66 -13.66,0 -26.28,-2.1 -39.94,-5.25l-38.9 -9.46 3.15 0c-6.31,2.1 -11.57,6.31 -13.67,11.57 -2.1,5.25 -2.1,11.56 0,17.86 4.2,12.63 13.67,24.19 23.13,33.65 5.26,4.2 10.52,8.41 16.81,11.56 6.32,3.15 12.62,5.26 19.99,7.36 13.66,3.16 28.38,3.16 43.1,5.26l2.1 0 1.06 1.04c11.56,12.63 23.12,26.29 34.68,38.91 5.26,6.31 11.55,13.66 16.82,19.97 7.35,7.36 12.62,14.72 18.94,21.02z"/>
   <path class="fil33" d="M-5222.14 2810.44c8.4,-6.32 16.83,-12.62 26.28,-17.88 9.45,-5.26 19.98,-8.41 30.49,-10.51 10.51,-2.1 22.06,-2.1 33.63,1.05 10.52,3.15 21.03,9.46 27.33,17.88 -11.56,-1.05 -21.01,-2.11 -30.47,-3.16 -9.48,-1.05 -18.93,-1.05 -28.39,0 -9.47,1.05 -18.92,3.16 -28.38,5.25 -10.53,2.11 -19.99,5.26 -30.49,7.37z"/>
   <path class="fil33" d="M-5405.95 2395.12c2.1,11.58 9.46,19.98 16.82,27.35 8.41,7.35 16.82,13.66 27.33,18.91 19.97,10.52 42.04,17.88 63.07,18.93l4.2 0 1.06 4.21c2.09,7.36 6.3,13.66 10.51,19.97 4.2,6.31 9.46,12.62 15.77,17.88l1.05 1.04 0 2.1c3.15,11.57 9.47,23.14 15.77,34.7 6.31,11.56 13.67,22.07 21.03,33.64 14.73,22.07 30.47,43.1 47.29,63.07l-6.29 6.31c-9.48,-9.46 -17.88,-19.97 -26.27,-30.48 -8.43,-10.51 -16.83,-21.02 -24.21,-32.6 -7.34,-11.56 -14.71,-22.07 -22.07,-34.68 -6.3,-11.57 -12.61,-24.19 -16.81,-37.85l2.09 3.15c-6.3,-6.31 -11.56,-12.61 -16.82,-19.97 -5.25,-7.36 -9.46,-14.72 -12.61,-23.13l5.26 4.21c-12.62,-1.05 -24.18,-3.16 -35.75,-6.31 -11.56,-3.16 -22.06,-8.42 -32.57,-14.72 -10.52,-6.31 -19.98,-12.61 -28.39,-22.08 -6.31,-8.41 -12.62,-21.02 -9.46,-33.65z"/>
   <path class="fil33" d="M-5479.79 2459.36c6.31,13.67 14.72,24.18 26.28,33.64 10.52,9.46 23.14,17.87 34.7,25.23 11.56,7.36 25.23,14.72 37.84,21.02 12.62,6.31 26.28,12.62 38.89,17.87l1.05 0 1.06 0c39.94,32.6 72.53,71.5 104.06,111.45l-7.34 5.25c-30.5,-39.95 -63.08,-77.79 -103.04,-109.33l1.06 1.05c-14.71,-4.21 -27.33,-10.51 -40.99,-16.82 -13.67,-6.31 -26.28,-14.72 -37.84,-23.13 -12.63,-8.41 -23.14,-17.87 -33.65,-28.39 -10.52,-10.51 -18.92,-24.17 -22.08,-37.84z"/>
   <path class="fil33" d="M-5277.79 2680c9.46,-7.35 19.97,-12.61 30.47,-16.82 10.54,-5.25 21.04,-8.4 31.55,-12.61l31.54 -12.62c10.51,-4.19 21.04,-8.4 32.6,-11.56 -8.42,8.41 -17.88,15.77 -27.33,22.07 -9.48,6.32 -19.99,11.58 -31.55,15.77 -10.5,4.21 -22.09,7.37 -33.64,10.52 -10.51,3.16 -21.02,4.2 -33.64,5.25z"/>
   <path class="fil42" d="M-6975.24 2572.47l38.55 50.04c2.34,3.48 7.01,4.65 10.52,4.65l63.1 -3.5c10.52,0 16.36,10.48 10.52,19.79l-36.22 52.36c-2.34,3.5 -2.34,8.15 -1.17,11.64l22.2 59.34c3.5,9.31 -5.84,19.79 -15.19,16.3l-60.76 -17.46c-3.51,-1.17 -8.18,0 -11.69,2.33l-49.08 39.57c-8.18,6.97 -19.86,1.15 -19.86,-9.32l-1.17 -62.83c0,-4.66 -2.34,-8.15 -5.84,-10.47l-52.58 -34.92c-8.18,-5.82 -7.02,-18.61 2.33,-22.11l59.6 -20.94c3.51,-1.17 7.01,-4.65 8.18,-8.14l16.35 -60.51c2.35,-11.64 16.36,-15.14 22.21,-5.82z"/>
   <path class="fil42" d="M-7549.2 4052.57l36.47 41.91c2.5,2.02 5.87,3.5 9.54,3.58l55.29 -6.17c9.07,-0.95 15.1,8.47 10.42,16.27l-28.15 46.74c-1.49,3.37 -1.56,7.02 -0.78,10.13l23.56 50.08c4.07,8.24 -3.75,16.82 -12.19,14.94l-54.05 -12.67c-3.36,-1.48 -7.35,-0.14 -10.24,2.89l-40.12 37.48c-6.64,6.63 -17.29,1.33 -17.68,-6.87l-4.79 -54.74c0.08,-3.65 -2.11,-7.08 -5.48,-8.56l-48.65 -26.94c-7.82,-4.66 -7.59,-15.64 0.7,-19.71l50.51 -21.18c3.13,-0.8 5.48,-4.69 6.1,-7.51l11.33 -54.13c1.33,-9.25 12.42,-12.69 18.21,-5.54z"/>
   <path class="fil42" d="M-6929.64 4002.67l16.36 45.39c1.17,3.48 3.51,4.64 7.01,5.82l46.74 11.63c8.18,2.31 9.35,11.63 3.51,16.28l-37.4 30.26c-2.34,2.33 -3.5,4.66 -3.5,8.15l3.5 47.71c0,8.12 -8.17,12.8 -15.19,8.12l-40.89 -26.75c-2.34,-1.15 -5.85,-2.33 -9.35,-1.15l-44.4 17.45c-7.02,3.49 -15.2,-3.5 -12.86,-11.63l12.86 -46.57c1.16,-3.48 0,-5.82 -2.35,-8.15l-31.54 -37.23c-4.68,-5.82 -1.17,-15.12 7.01,-15.12l47.9 -2.33c3.51,0 5.85,-2.33 8.18,-4.64l25.71 -40.74c5.84,-4.65 15.2,-3.49 18.7,3.5z"/>
  </g>
 </g>
</svg>
